<svg width="100" height="72" viewBox="0 0 100 72" fill="none" xmlns="http://www.w3.org/2000/svg">
<path d="M7.6225 23.1H13.945V25.065H9.8575V27.0825H13.9075V28.9875H9.8575V31.035H13.945V33H7.6225V23.1ZM21.4177 22.92C22.0327 22.92 22.5702 22.9875 23.0302 23.1225C23.4902 23.2575 23.8602 23.4 24.1402 23.55C24.4202 23.7 24.5902 23.8 24.6502 23.85L23.5702 25.6575C23.4902 25.5975 23.3527 25.51 23.1577 25.395C22.9677 25.28 22.7402 25.1775 22.4752 25.0875C22.2152 24.9975 21.9427 24.9525 21.6577 24.9525C21.2727 24.9525 20.9602 25.0225 20.7202 25.1625C20.4852 25.2975 20.3677 25.5 20.3677 25.77C20.3677 25.955 20.4302 26.1225 20.5552 26.2725C20.6852 26.4175 20.8802 26.5575 21.1402 26.6925C21.4052 26.8225 21.7402 26.965 22.1452 27.12C22.5152 27.255 22.8627 27.415 23.1877 27.6C23.5127 27.785 23.7977 28.005 24.0427 28.26C24.2927 28.51 24.4902 28.8 24.6352 29.13C24.7802 29.46 24.8527 29.835 24.8527 30.255C24.8527 30.755 24.7502 31.19 24.5452 31.56C24.3402 31.925 24.0602 32.2275 23.7052 32.4675C23.3552 32.7075 22.9552 32.885 22.5052 33C22.0602 33.12 21.5977 33.18 21.1177 33.18C20.4377 33.18 19.8277 33.1025 19.2877 32.9475C18.7527 32.7925 18.3202 32.625 17.9902 32.445C17.6602 32.265 17.4627 32.145 17.3977 32.085L18.5152 30.2025C18.5752 30.2475 18.6902 30.32 18.8602 30.42C19.0352 30.52 19.2477 30.625 19.4977 30.735C19.7477 30.84 20.0127 30.93 20.2927 31.005C20.5777 31.08 20.8577 31.1175 21.1327 31.1175C21.5927 31.1175 21.9377 31.03 22.1677 30.855C22.3977 30.675 22.5127 30.44 22.5127 30.15C22.5127 29.935 22.4402 29.7425 22.2952 29.5725C22.1502 29.4025 21.9327 29.2425 21.6427 29.0925C21.3527 28.9375 20.9902 28.775 20.5552 28.605C20.1202 28.43 19.7127 28.2175 19.3327 27.9675C18.9577 27.7175 18.6527 27.405 18.4177 27.03C18.1827 26.655 18.0652 26.19 18.0652 25.635C18.0652 25.08 18.2202 24.6 18.5302 24.195C18.8452 23.785 19.2577 23.47 19.7677 23.25C20.2827 23.03 20.8327 22.92 21.4177 22.92ZM30.2238 25.065H27.8613V23.1H34.8213V25.065H32.4663V33H30.2238V25.065ZM40.3116 23.1H42.5391L46.4466 33H44.0541L43.3341 31.0125H39.5241L38.7966 33H36.3966L40.3116 23.1ZM40.2741 29.0475H42.5916L41.4441 25.8H41.4216L40.2741 29.0475ZM49.4733 23.1H52.8708C53.4358 23.1 53.9583 23.1775 54.4383 23.3325C54.9233 23.4875 55.3133 23.7425 55.6083 24.0975C55.9083 24.4475 56.0583 24.9225 56.0583 25.5225C56.0583 25.9175 55.9833 26.27 55.8333 26.58C55.6883 26.89 55.4933 27.145 55.2483 27.345C55.0083 27.54 54.7458 27.67 54.4608 27.735C54.7108 27.765 54.9533 27.8375 55.1883 27.9525C55.4283 28.0625 55.6433 28.2175 55.8333 28.4175C56.0283 28.6125 56.1808 28.8575 56.2908 29.1525C56.4058 29.4425 56.4633 29.7875 56.4633 30.1875C56.4633 30.7425 56.3383 31.2325 56.0883 31.6575C55.8433 32.0775 55.4833 32.4075 55.0083 32.6475C54.5383 32.8825 53.9608 33 53.2758 33H49.4733V23.1ZM51.7158 31.2075H52.7358C53.0558 31.2075 53.3158 31.16 53.5158 31.065C53.7208 30.965 53.8708 30.825 53.9658 30.645C54.0608 30.46 54.1083 30.24 54.1083 29.985C54.1083 29.585 53.9833 29.2925 53.7333 29.1075C53.4883 28.9175 53.1433 28.8225 52.6983 28.8225H51.7158V31.2075ZM51.7158 27.0675H52.6233C52.8883 27.0675 53.1083 27.02 53.2833 26.925C53.4633 26.83 53.5983 26.6975 53.6883 26.5275C53.7833 26.3525 53.8308 26.1525 53.8308 25.9275C53.8308 25.5225 53.7158 25.25 53.4858 25.11C53.2558 24.965 52.9408 24.8925 52.5408 24.8925H51.7158V27.0675ZM60.0272 23.1H62.2697V31.035H65.8622V33H60.0272V23.1ZM68.9482 34.47V33.1875H75.0757V34.47H68.9482ZM77.4514 34.47V33.1875H83.5789V34.47H77.4514ZM85.9545 34.47V33.1875H92.082V34.47H85.9545Z" fill="#61D8DE"/>
<rect x="1.5" y="15.5" width="97" height="27" stroke="#61D8DE" stroke-width="3"/>
<path d="M6.918 8.594C6.918 9.122 6.836 9.576 6.672 9.956C6.508 10.336 6.262 10.63 5.934 10.838C5.61 11.042 5.206 11.144 4.722 11.144C4.342 11.144 4.022 11.092 3.762 10.988C3.502 10.884 3.3 10.77 3.156 10.646C3.012 10.518 2.922 10.424 2.886 10.364L3.336 9.482C3.38 9.554 3.45 9.644 3.546 9.752C3.642 9.856 3.776 9.948 3.948 10.028C4.12 10.108 4.336 10.148 4.596 10.148C4.904 10.148 5.152 10.078 5.34 9.938C5.532 9.794 5.672 9.596 5.76 9.344C5.848 9.092 5.892 8.8 5.892 8.468V3.08H6.918V8.594ZM10.5741 11.144C10.0661 11.144 9.61406 11.03 9.21806 10.802C8.82606 10.574 8.51806 10.266 8.29406 9.878C8.07006 9.486 7.95806 9.044 7.95806 8.552C7.95806 8.06 8.07006 7.616 8.29406 7.22C8.51806 6.824 8.82606 6.51 9.21806 6.278C9.61406 6.046 10.0661 5.93 10.5741 5.93C11.0781 5.93 11.5241 6.046 11.9121 6.278C12.3041 6.51 12.6101 6.824 12.8301 7.22C13.0501 7.616 13.1601 8.06 13.1601 8.552C13.1601 9.044 13.0501 9.486 12.8301 9.878C12.6101 10.266 12.3041 10.574 11.9121 10.802C11.5241 11.03 11.0781 11.144 10.5741 11.144ZM10.5741 10.25C10.8941 10.25 11.1721 10.176 11.4081 10.028C11.6481 9.88 11.8341 9.678 11.9661 9.422C12.0981 9.162 12.1641 8.87 12.1641 8.546C12.1641 8.222 12.0981 7.93 11.9661 7.67C11.8341 7.41 11.6481 7.204 11.4081 7.052C11.1721 6.9 10.8941 6.824 10.5741 6.824C10.2501 6.824 9.96806 6.9 9.72806 7.052C9.48806 7.204 9.30006 7.41 9.16406 7.67C9.03206 7.93 8.96606 8.222 8.96606 8.546C8.96606 8.87 9.03206 9.162 9.16406 9.422C9.30006 9.678 9.48806 9.88 9.72806 10.028C9.96806 10.176 10.2501 10.25 10.5741 10.25ZM17.1075 5.93C17.4315 5.93 17.7455 5.998 18.0495 6.134C18.3575 6.27 18.6095 6.486 18.8055 6.782C19.0055 7.074 19.1055 7.456 19.1055 7.928V11H18.0495V8.132C18.0495 7.644 17.9375 7.29 17.7135 7.07C17.4935 6.846 17.2035 6.734 16.8435 6.734C16.6035 6.734 16.3735 6.802 16.1535 6.938C15.9335 7.07 15.7515 7.254 15.6075 7.49C15.4675 7.722 15.3975 7.986 15.3975 8.282V11H14.3415V2.744H15.3975V6.95C15.4335 6.814 15.5295 6.666 15.6855 6.506C15.8455 6.346 16.0495 6.21 16.2975 6.098C16.5455 5.986 16.8155 5.93 17.1075 5.93ZM23.2707 5.93C23.5947 5.93 23.9087 5.998 24.2127 6.134C24.5207 6.27 24.7727 6.486 24.9687 6.782C25.1687 7.074 25.2687 7.456 25.2687 7.928V11H24.2127V8.132C24.2127 7.644 24.0987 7.29 23.8707 7.07C23.6427 6.846 23.3487 6.734 22.9887 6.734C22.7527 6.734 22.5247 6.802 22.3047 6.938C22.0887 7.07 21.9107 7.254 21.7707 7.49C21.6307 7.722 21.5607 7.986 21.5607 8.282V11H20.5167V6.074H21.5607V6.95C21.5967 6.814 21.6947 6.666 21.8547 6.506C22.0147 6.346 22.2187 6.21 22.4667 6.098C22.7147 5.986 22.9827 5.93 23.2707 5.93ZM32.8682 7.31L31.6142 11H30.5342L29.1962 6.074H30.3062L31.2002 9.86L32.4362 6.17H33.3002L34.5242 9.86L35.4242 6.074H36.5402L35.2022 11H34.1222L32.8682 7.31ZM41.5275 11V10.04C41.4955 10.14 41.4015 10.278 41.2455 10.454C41.0935 10.63 40.8835 10.79 40.6155 10.934C40.3515 11.074 40.0395 11.144 39.6795 11.144C39.2235 11.144 38.8095 11.036 38.4375 10.82C38.0695 10.604 37.7755 10.302 37.5555 9.914C37.3395 9.522 37.2315 9.064 37.2315 8.54C37.2315 8.016 37.3395 7.56 37.5555 7.172C37.7755 6.78 38.0695 6.476 38.4375 6.26C38.8095 6.04 39.2235 5.93 39.6795 5.93C40.0355 5.93 40.3435 5.994 40.6035 6.122C40.8675 6.25 41.0775 6.398 41.2335 6.566C41.3935 6.734 41.4875 6.878 41.5155 6.998V6.074H42.5475V11H41.5275ZM38.2635 8.54C38.2635 8.896 38.3415 9.204 38.4975 9.464C38.6535 9.724 38.8555 9.926 39.1035 10.07C39.3555 10.21 39.6235 10.28 39.9075 10.28C40.2115 10.28 40.4835 10.208 40.7235 10.064C40.9635 9.92 41.1535 9.718 41.2935 9.458C41.4335 9.194 41.5035 8.888 41.5035 8.54C41.5035 8.192 41.4335 7.888 41.2935 7.628C41.1535 7.364 40.9635 7.16 40.7235 7.016C40.4835 6.868 40.2115 6.794 39.9075 6.794C39.6235 6.794 39.3555 6.866 39.1035 7.01C38.8555 7.154 38.6535 7.356 38.4975 7.616C38.3415 7.876 38.2635 8.184 38.2635 8.54ZM46.6965 5.93C47.0205 5.93 47.3345 5.998 47.6385 6.134C47.9465 6.27 48.1985 6.486 48.3945 6.782C48.5945 7.074 48.6945 7.456 48.6945 7.928V11H47.6385V8.132C47.6385 7.644 47.5245 7.29 47.2965 7.07C47.0685 6.846 46.7745 6.734 46.4145 6.734C46.1785 6.734 45.9505 6.802 45.7305 6.938C45.5145 7.07 45.3365 7.254 45.1965 7.49C45.0565 7.722 44.9865 7.986 44.9865 8.282V11H43.9425V6.074H44.9865V6.95C45.0225 6.814 45.1205 6.666 45.2805 6.506C45.4405 6.346 45.6445 6.21 45.8925 6.098C46.1405 5.986 46.4085 5.93 46.6965 5.93ZM49.6397 6.074H50.6057V4.052H51.6437V6.074H52.9097V6.968H51.6437V9.404C51.6437 9.692 51.6937 9.904 51.7937 10.04C51.8977 10.176 52.0357 10.244 52.2077 10.244C52.3597 10.244 52.4777 10.216 52.5617 10.16C52.6457 10.104 52.6957 10.066 52.7117 10.046L53.1257 10.814C53.1017 10.834 53.0377 10.872 52.9337 10.928C52.8297 10.984 52.6957 11.034 52.5317 11.078C52.3677 11.122 52.1757 11.144 51.9557 11.144C51.5717 11.144 51.2497 11.028 50.9897 10.796C50.7337 10.56 50.6057 10.188 50.6057 9.68V6.968H49.6397V6.074ZM54.6863 8.75C54.6903 9.046 54.7543 9.316 54.8783 9.56C55.0023 9.804 55.1863 9.998 55.4303 10.142C55.6783 10.286 55.9823 10.358 56.3423 10.358C56.6463 10.358 56.9043 10.314 57.1163 10.226C57.3323 10.134 57.5083 10.026 57.6443 9.902C57.7803 9.774 57.8783 9.66 57.9383 9.56L58.4483 10.19C58.3163 10.382 58.1543 10.55 57.9623 10.694C57.7743 10.838 57.5443 10.948 57.2723 11.024C57.0003 11.104 56.6683 11.144 56.2763 11.144C55.7483 11.144 55.2903 11.032 54.9023 10.808C54.5183 10.58 54.2223 10.266 54.0143 9.866C53.8063 9.462 53.7023 9 53.7023 8.48C53.7023 8 53.8003 7.568 53.9963 7.184C54.1923 6.796 54.4763 6.49 54.8483 6.266C55.2243 6.042 55.6763 5.93 56.2043 5.93C56.6883 5.93 57.1083 6.032 57.4643 6.236C57.8243 6.436 58.1023 6.72 58.2983 7.088C58.4983 7.456 58.5983 7.896 58.5983 8.408C58.5983 8.44 58.5963 8.498 58.5923 8.582C58.5883 8.662 58.5843 8.718 58.5803 8.75H54.6863ZM57.6023 7.964C57.5983 7.8 57.5503 7.62 57.4583 7.424C57.3703 7.228 57.2263 7.06 57.0263 6.92C56.8263 6.78 56.5563 6.71 56.2163 6.71C55.8643 6.71 55.5803 6.778 55.3643 6.914C55.1523 7.05 54.9963 7.216 54.8963 7.412C54.7963 7.604 54.7383 7.788 54.7223 7.964H57.6023ZM61.9231 11.144C61.4711 11.144 61.0651 11.036 60.7051 10.82C60.3491 10.604 60.0671 10.302 59.8591 9.914C59.6551 9.522 59.5531 9.064 59.5531 8.54C59.5531 8.016 59.6551 7.56 59.8591 7.172C60.0671 6.78 60.3491 6.476 60.7051 6.26C61.0651 6.04 61.4711 5.93 61.9231 5.93C62.2871 5.93 62.6071 5.994 62.8831 6.122C63.1591 6.246 63.3791 6.392 63.5431 6.56C63.7071 6.728 63.8011 6.874 63.8251 6.998V2.744H64.8751V11H63.8431V10.04C63.7991 10.176 63.6891 10.33 63.5131 10.502C63.3411 10.674 63.1191 10.824 62.8471 10.952C62.5751 11.08 62.2671 11.144 61.9231 11.144ZM62.1631 10.28C62.4671 10.28 62.7451 10.208 62.9971 10.064C63.2491 9.92 63.4491 9.718 63.5971 9.458C63.7491 9.194 63.8251 8.888 63.8251 8.54C63.8251 8.192 63.7491 7.888 63.5971 7.628C63.4491 7.364 63.2491 7.16 62.9971 7.016C62.7451 6.868 62.4671 6.794 62.1631 6.794C61.8831 6.794 61.6231 6.866 61.3831 7.01C61.1431 7.154 60.9491 7.356 60.8011 7.616C60.6571 7.876 60.5851 8.184 60.5851 8.54C60.5851 8.896 60.6571 9.204 60.8011 9.464C60.9491 9.724 61.1431 9.926 61.3831 10.07C61.6231 10.21 61.8831 10.28 62.1631 10.28ZM68.6123 6.074H69.5783V4.052H70.6163V6.074H71.8823V6.968H70.6163V9.404C70.6163 9.692 70.6663 9.904 70.7663 10.04C70.8703 10.176 71.0083 10.244 71.1803 10.244C71.3323 10.244 71.4503 10.216 71.5343 10.16C71.6183 10.104 71.6683 10.066 71.6843 10.046L72.0983 10.814C72.0743 10.834 72.0103 10.872 71.9063 10.928C71.8023 10.984 71.6683 11.034 71.5043 11.078C71.3403 11.122 71.1483 11.144 70.9283 11.144C70.5443 11.144 70.2223 11.028 69.9623 10.796C69.7063 10.56 69.5783 10.188 69.5783 9.68V6.968H68.6123V6.074ZM75.285 11.144C74.777 11.144 74.325 11.03 73.929 10.802C73.537 10.574 73.229 10.266 73.005 9.878C72.781 9.486 72.669 9.044 72.669 8.552C72.669 8.06 72.781 7.616 73.005 7.22C73.229 6.824 73.537 6.51 73.929 6.278C74.325 6.046 74.777 5.93 75.285 5.93C75.789 5.93 76.235 6.046 76.623 6.278C77.015 6.51 77.321 6.824 77.541 7.22C77.761 7.616 77.871 8.06 77.871 8.552C77.871 9.044 77.761 9.486 77.541 9.878C77.321 10.266 77.015 10.574 76.623 10.802C76.235 11.03 75.789 11.144 75.285 11.144ZM75.285 10.25C75.605 10.25 75.883 10.176 76.119 10.028C76.359 9.88 76.545 9.678 76.677 9.422C76.809 9.162 76.875 8.87 76.875 8.546C76.875 8.222 76.809 7.93 76.677 7.67C76.545 7.41 76.359 7.204 76.119 7.052C75.883 6.9 75.605 6.824 75.285 6.824C74.961 6.824 74.679 6.9 74.439 7.052C74.199 7.204 74.011 7.41 73.875 7.67C73.743 7.93 73.677 8.222 73.677 8.546C73.677 8.87 73.743 9.162 73.875 9.422C74.011 9.678 74.199 9.88 74.439 10.028C74.679 10.176 74.961 10.25 75.285 10.25Z" fill="#61D8DE"/>
<path d="M7.59 55V54.04C7.558 54.14 7.464 54.278 7.308 54.454C7.156 54.63 6.946 54.79 6.678 54.934C6.414 55.074 6.102 55.144 5.742 55.144C5.286 55.144 4.872 55.036 4.5 54.82C4.132 54.604 3.838 54.302 3.618 53.914C3.402 53.522 3.294 53.064 3.294 52.54C3.294 52.016 3.402 51.56 3.618 51.172C3.838 50.78 4.132 50.476 4.5 50.26C4.872 50.04 5.286 49.93 5.742 49.93C6.098 49.93 6.406 49.994 6.666 50.122C6.93 50.25 7.14 50.398 7.296 50.566C7.456 50.734 7.55 50.878 7.578 50.998V50.074H8.61V55H7.59ZM4.326 52.54C4.326 52.896 4.404 53.204 4.56 53.464C4.716 53.724 4.918 53.926 5.166 54.07C5.418 54.21 5.686 54.28 5.97 54.28C6.274 54.28 6.546 54.208 6.786 54.064C7.026 53.92 7.216 53.718 7.356 53.458C7.496 53.194 7.566 52.888 7.566 52.54C7.566 52.192 7.496 51.888 7.356 51.628C7.216 51.364 7.026 51.16 6.786 51.016C6.546 50.868 6.274 50.794 5.97 50.794C5.686 50.794 5.418 50.866 5.166 51.01C4.918 51.154 4.716 51.356 4.56 51.616C4.404 51.876 4.326 52.184 4.326 52.54ZM15.3153 54.28C15.6273 54.28 15.8793 54.23 16.0713 54.13C16.2633 54.03 16.3833 53.958 16.4313 53.914L16.9413 54.664C16.9013 54.7 16.8053 54.758 16.6533 54.838C16.5053 54.914 16.3133 54.984 16.0773 55.048C15.8453 55.112 15.5813 55.144 15.2853 55.144C14.8333 55.144 14.4133 55.044 14.0253 54.844C13.6373 54.64 13.3233 54.344 13.0833 53.956C12.8473 53.568 12.7293 53.094 12.7293 52.534C12.7293 51.97 12.8473 51.496 13.0833 51.112C13.3233 50.724 13.6373 50.43 14.0253 50.23C14.4133 50.03 14.8333 49.93 15.2853 49.93C15.5773 49.93 15.8373 49.966 16.0653 50.038C16.2933 50.106 16.4813 50.182 16.6293 50.266C16.7773 50.35 16.8753 50.414 16.9233 50.458L16.4073 51.208C16.3753 51.176 16.3133 51.128 16.2213 51.064C16.1333 50.996 16.0133 50.934 15.8613 50.878C15.7093 50.822 15.5273 50.794 15.3153 50.794C15.0593 50.794 14.8093 50.864 14.5653 51.004C14.3253 51.14 14.1273 51.338 13.9713 51.598C13.8153 51.858 13.7373 52.17 13.7373 52.534C13.7373 52.898 13.8153 53.212 13.9713 53.476C14.1273 53.736 14.3253 53.936 14.5653 54.076C14.8093 54.212 15.0593 54.28 15.3153 54.28ZM20.2538 55.144C19.7458 55.144 19.2938 55.03 18.8978 54.802C18.5058 54.574 18.1978 54.266 17.9738 53.878C17.7498 53.486 17.6378 53.044 17.6378 52.552C17.6378 52.06 17.7498 51.616 17.9738 51.22C18.1978 50.824 18.5058 50.51 18.8978 50.278C19.2938 50.046 19.7458 49.93 20.2538 49.93C20.7578 49.93 21.2038 50.046 21.5918 50.278C21.9838 50.51 22.2898 50.824 22.5098 51.22C22.7298 51.616 22.8398 52.06 22.8398 52.552C22.8398 53.044 22.7298 53.486 22.5098 53.878C22.2898 54.266 21.9838 54.574 21.5918 54.802C21.2038 55.03 20.7578 55.144 20.2538 55.144ZM20.2538 54.25C20.5738 54.25 20.8518 54.176 21.0878 54.028C21.3278 53.88 21.5138 53.678 21.6458 53.422C21.7778 53.162 21.8438 52.87 21.8438 52.546C21.8438 52.222 21.7778 51.93 21.6458 51.67C21.5138 51.41 21.3278 51.204 21.0878 51.052C20.8518 50.9 20.5738 50.824 20.2538 50.824C19.9298 50.824 19.6478 50.9 19.4078 51.052C19.1678 51.204 18.9798 51.41 18.8438 51.67C18.7118 51.93 18.6458 52.222 18.6458 52.546C18.6458 52.87 18.7118 53.162 18.8438 53.422C18.9798 53.678 19.1678 53.88 19.4078 54.028C19.6478 54.176 19.9298 54.25 20.2538 54.25ZM29.9072 49.93C30.2712 49.93 30.5832 50.01 30.8432 50.17C31.1032 50.326 31.3012 50.566 31.4372 50.89C31.5772 51.214 31.6472 51.628 31.6472 52.132V55H30.6152V52.342C30.6152 51.81 30.5412 51.41 30.3932 51.142C30.2452 50.874 29.9752 50.74 29.5832 50.74C29.3752 50.74 29.1752 50.798 28.9832 50.914C28.7952 51.026 28.6392 51.2 28.5152 51.436C28.3952 51.672 28.3352 51.974 28.3352 52.342V55H27.3632V52.342C27.3632 51.81 27.2712 51.41 27.0872 51.142C26.9032 50.874 26.6452 50.74 26.3132 50.74C26.1012 50.74 25.9012 50.796 25.7132 50.908C25.5292 51.016 25.3792 51.188 25.2632 51.424C25.1472 51.66 25.0892 51.966 25.0892 52.342V55H24.0512V50.074H25.0892V50.83C25.1332 50.706 25.2272 50.574 25.3712 50.434C25.5192 50.294 25.7072 50.176 25.9352 50.08C26.1672 49.98 26.4252 49.93 26.7092 49.93C27.0052 49.93 27.2532 49.99 27.4532 50.11C27.6532 50.23 27.8112 50.378 27.9272 50.554C28.0432 50.726 28.1232 50.892 28.1672 51.052C28.2232 50.88 28.3312 50.708 28.4912 50.536C28.6512 50.36 28.8532 50.216 29.0972 50.104C29.3412 49.988 29.6112 49.93 29.9072 49.93ZM34.1469 57.496H33.1089V50.074H34.1649V50.998C34.2009 50.874 34.3009 50.728 34.4649 50.56C34.6289 50.392 34.8489 50.246 35.1249 50.122C35.4049 49.994 35.7249 49.93 36.0849 49.93C36.5409 49.93 36.9449 50.04 37.2969 50.26C37.6529 50.476 37.9309 50.78 38.1309 51.172C38.3349 51.56 38.4369 52.016 38.4369 52.54C38.4369 53.064 38.3329 53.522 38.1249 53.914C37.9169 54.302 37.6329 54.604 37.2729 54.82C36.9169 55.036 36.5089 55.144 36.0489 55.144C35.6769 55.144 35.3509 55.074 35.0709 54.934C34.7949 54.794 34.5769 54.636 34.4169 54.46C34.2609 54.284 34.1709 54.144 34.1469 54.04V57.496ZM37.4049 52.54C37.4049 52.184 37.3309 51.876 37.1829 51.616C37.0389 51.356 36.8469 51.154 36.6069 51.01C36.3669 50.866 36.1069 50.794 35.8269 50.794C35.5189 50.794 35.2389 50.868 34.9869 51.016C34.7349 51.16 34.5349 51.364 34.3869 51.628C34.2389 51.888 34.1649 52.192 34.1649 52.54C34.1649 52.888 34.2389 53.194 34.3869 53.458C34.5349 53.718 34.7349 53.92 34.9869 54.064C35.2389 54.208 35.5189 54.28 35.8269 54.28C36.1069 54.28 36.3669 54.21 36.6069 54.07C36.8469 53.926 37.0389 53.724 37.1829 53.464C37.3309 53.204 37.4049 52.896 37.4049 52.54ZM43.4845 55V54.04C43.4525 54.14 43.3585 54.278 43.2025 54.454C43.0505 54.63 42.8405 54.79 42.5725 54.934C42.3085 55.074 41.9965 55.144 41.6365 55.144C41.1805 55.144 40.7665 55.036 40.3945 54.82C40.0265 54.604 39.7325 54.302 39.5125 53.914C39.2965 53.522 39.1885 53.064 39.1885 52.54C39.1885 52.016 39.2965 51.56 39.5125 51.172C39.7325 50.78 40.0265 50.476 40.3945 50.26C40.7665 50.04 41.1805 49.93 41.6365 49.93C41.9925 49.93 42.3005 49.994 42.5605 50.122C42.8245 50.25 43.0345 50.398 43.1905 50.566C43.3505 50.734 43.4445 50.878 43.4725 50.998V50.074H44.5045V55H43.4845ZM40.2205 52.54C40.2205 52.896 40.2985 53.204 40.4545 53.464C40.6105 53.724 40.8125 53.926 41.0605 54.07C41.3125 54.21 41.5805 54.28 41.8645 54.28C42.1685 54.28 42.4405 54.208 42.6805 54.064C42.9205 53.92 43.1105 53.718 43.2505 53.458C43.3905 53.194 43.4605 52.888 43.4605 52.54C43.4605 52.192 43.3905 51.888 43.2505 51.628C43.1105 51.364 42.9205 51.16 42.6805 51.016C42.4405 50.868 42.1685 50.794 41.8645 50.794C41.5805 50.794 41.3125 50.866 41.0605 51.01C40.8125 51.154 40.6105 51.356 40.4545 51.616C40.2985 51.876 40.2205 52.184 40.2205 52.54ZM48.6535 49.93C48.9775 49.93 49.2915 49.998 49.5955 50.134C49.9035 50.27 50.1555 50.486 50.3515 50.782C50.5515 51.074 50.6515 51.456 50.6515 51.928V55H49.5955V52.132C49.5955 51.644 49.4815 51.29 49.2535 51.07C49.0255 50.846 48.7315 50.734 48.3715 50.734C48.1355 50.734 47.9075 50.802 47.6875 50.938C47.4715 51.07 47.2935 51.254 47.1535 51.49C47.0135 51.722 46.9435 51.986 46.9435 52.282V55H45.8995V50.074H46.9435V50.95C46.9795 50.814 47.0775 50.666 47.2375 50.506C47.3975 50.346 47.6015 50.21 47.8495 50.098C48.0975 49.986 48.3655 49.93 48.6535 49.93ZM54.0627 54.046L55.7247 50.074H56.7687L53.4447 57.496H52.3887L53.5047 55L51.4767 50.074H52.5387L54.0627 54.046ZM62.828 55.144C62.32 55.144 61.868 55.03 61.472 54.802C61.08 54.574 60.772 54.266 60.548 53.878C60.324 53.486 60.212 53.044 60.212 52.552C60.212 52.06 60.324 51.616 60.548 51.22C60.772 50.824 61.08 50.51 61.472 50.278C61.868 50.046 62.32 49.93 62.828 49.93C63.332 49.93 63.778 50.046 64.166 50.278C64.558 50.51 64.864 50.824 65.084 51.22C65.304 51.616 65.414 52.06 65.414 52.552C65.414 53.044 65.304 53.486 65.084 53.878C64.864 54.266 64.558 54.574 64.166 54.802C63.778 55.03 63.332 55.144 62.828 55.144ZM62.828 54.25C63.148 54.25 63.426 54.176 63.662 54.028C63.902 53.88 64.088 53.678 64.22 53.422C64.352 53.162 64.418 52.87 64.418 52.546C64.418 52.222 64.352 51.93 64.22 51.67C64.088 51.41 63.902 51.204 63.662 51.052C63.426 50.9 63.148 50.824 62.828 50.824C62.504 50.824 62.222 50.9 61.982 51.052C61.742 51.204 61.554 51.41 61.418 51.67C61.286 51.93 61.22 52.222 61.22 52.546C61.22 52.87 61.286 53.162 61.418 53.422C61.554 53.678 61.742 53.88 61.982 54.028C62.222 54.176 62.504 54.25 62.828 54.25ZM66.0625 50.074H67.0705V48.676C67.0705 48.176 67.1565 47.774 67.3285 47.47C67.5045 47.166 67.7265 46.946 67.9945 46.81C68.2665 46.67 68.5445 46.6 68.8285 46.6C69.1725 46.6 69.4365 46.648 69.6205 46.744C69.8085 46.84 69.9205 46.904 69.9565 46.936L69.5365 47.734C69.5165 47.71 69.4545 47.666 69.3505 47.602C69.2465 47.538 69.1045 47.506 68.9245 47.506C68.7925 47.506 68.6645 47.538 68.5405 47.602C68.4165 47.666 68.3125 47.79 68.2285 47.974C68.1445 48.158 68.1025 48.432 68.1025 48.796V50.074H69.5065V50.968H68.1025V55H67.0705V50.968H66.0625V50.074ZM76.2286 49.93C76.5526 49.93 76.8666 49.998 77.1706 50.134C77.4786 50.27 77.7306 50.486 77.9266 50.782C78.1266 51.074 78.2266 51.456 78.2266 51.928V55H77.1706V52.132C77.1706 51.644 77.0586 51.29 76.8346 51.07C76.6146 50.846 76.3246 50.734 75.9646 50.734C75.7246 50.734 75.4946 50.802 75.2746 50.938C75.0546 51.07 74.8726 51.254 74.7286 51.49C74.5886 51.722 74.5186 51.986 74.5186 52.282V55H73.4626V46.744H74.5186V50.95C74.5546 50.814 74.6506 50.666 74.8066 50.506C74.9666 50.346 75.1706 50.21 75.4186 50.098C75.6666 49.986 75.9366 49.93 76.2286 49.93ZM79.7518 55V50.074H80.7958V55H79.7518ZM80.2858 48.388C80.0978 48.388 79.9358 48.322 79.7998 48.19C79.6678 48.054 79.6018 47.892 79.6018 47.704C79.6018 47.516 79.6678 47.354 79.7998 47.218C79.9358 47.082 80.0978 47.014 80.2858 47.014C80.4098 47.014 80.5238 47.046 80.6278 47.11C80.7358 47.174 80.8218 47.258 80.8858 47.362C80.9498 47.462 80.9818 47.576 80.9818 47.704C80.9818 47.892 80.9138 48.054 80.7778 48.19C80.6418 48.322 80.4778 48.388 80.2858 48.388ZM84.2397 49.93C84.4957 49.93 84.7337 49.956 84.9537 50.008C85.1777 50.06 85.3697 50.122 85.5297 50.194C85.6937 50.266 85.8097 50.33 85.8777 50.386L85.4637 51.046C85.3837 50.974 85.2397 50.894 85.0317 50.806C84.8237 50.714 84.5917 50.668 84.3357 50.668C84.0557 50.668 83.8177 50.724 83.6217 50.836C83.4257 50.944 83.3277 51.102 83.3277 51.31C83.3277 51.518 83.4277 51.684 83.6277 51.808C83.8317 51.928 84.1037 52.028 84.4437 52.108C84.7157 52.172 84.9697 52.258 85.2057 52.366C85.4457 52.474 85.6397 52.624 85.7877 52.816C85.9357 53.004 86.0097 53.256 86.0097 53.572C86.0097 53.86 85.9497 54.106 85.8297 54.31C85.7097 54.51 85.5477 54.672 85.3437 54.796C85.1397 54.916 84.9117 55.004 84.6597 55.06C84.4077 55.116 84.1517 55.144 83.8917 55.144C83.5877 55.144 83.3137 55.112 83.0697 55.048C82.8257 54.988 82.6197 54.916 82.4517 54.832C82.2877 54.744 82.1677 54.668 82.0917 54.604L82.5057 53.86C82.6097 53.96 82.7797 54.066 83.0157 54.178C83.2557 54.29 83.5277 54.346 83.8317 54.346C84.1677 54.346 84.4397 54.276 84.6477 54.136C84.8557 53.992 84.9597 53.806 84.9597 53.578C84.9597 53.406 84.9097 53.268 84.8097 53.164C84.7097 53.06 84.5757 52.976 84.4077 52.912C84.2397 52.848 84.0557 52.792 83.8557 52.744C83.6637 52.7 83.4757 52.642 83.2917 52.57C83.1117 52.498 82.9457 52.406 82.7937 52.294C82.6457 52.178 82.5277 52.038 82.4397 51.874C82.3517 51.706 82.3077 51.51 82.3077 51.286C82.3077 51.002 82.3977 50.76 82.5777 50.56C82.7577 50.356 82.9937 50.2 83.2857 50.092C83.5777 49.984 83.8957 49.93 84.2397 49.93ZM5.91 66.144C5.402 66.144 4.95 66.03 4.554 65.802C4.162 65.574 3.854 65.266 3.63 64.878C3.406 64.486 3.294 64.044 3.294 63.552C3.294 63.06 3.406 62.616 3.63 62.22C3.854 61.824 4.162 61.51 4.554 61.278C4.95 61.046 5.402 60.93 5.91 60.93C6.414 60.93 6.86 61.046 7.248 61.278C7.64 61.51 7.946 61.824 8.166 62.22C8.386 62.616 8.496 63.06 8.496 63.552C8.496 64.044 8.386 64.486 8.166 64.878C7.946 65.266 7.64 65.574 7.248 65.802C6.86 66.03 6.414 66.144 5.91 66.144ZM5.91 65.25C6.23 65.25 6.508 65.176 6.744 65.028C6.984 64.88 7.17 64.678 7.302 64.422C7.434 64.162 7.5 63.87 7.5 63.546C7.5 63.222 7.434 62.93 7.302 62.67C7.17 62.41 6.984 62.204 6.744 62.052C6.508 61.9 6.23 61.824 5.91 61.824C5.586 61.824 5.304 61.9 5.064 62.052C4.824 62.204 4.636 62.41 4.5 62.67C4.368 62.93 4.302 63.222 4.302 63.546C4.302 63.87 4.368 64.162 4.5 64.422C4.636 64.678 4.824 64.88 5.064 65.028C5.304 65.176 5.586 65.25 5.91 65.25ZM12.8994 62.31L11.6454 66H10.5654L9.22744 61.074H10.3374L11.2314 64.86L12.4674 61.17H13.3314L14.5554 64.86L15.4554 61.074H16.5714L15.2334 66H14.1534L12.8994 62.31ZM20.3528 60.93C20.6768 60.93 20.9908 60.998 21.2948 61.134C21.6028 61.27 21.8548 61.486 22.0508 61.782C22.2508 62.074 22.3508 62.456 22.3508 62.928V66H21.2948V63.132C21.2948 62.644 21.1808 62.29 20.9528 62.07C20.7248 61.846 20.4308 61.734 20.0708 61.734C19.8348 61.734 19.6068 61.802 19.3868 61.938C19.1708 62.07 18.9928 62.254 18.8528 62.49C18.7128 62.722 18.6428 62.986 18.6428 63.282V66H17.5988V61.074H18.6428V61.95C18.6788 61.814 18.7768 61.666 18.9368 61.506C19.0968 61.346 19.3008 61.21 19.5488 61.098C19.7968 60.986 20.0648 60.93 20.3528 60.93ZM24.8319 66.144C24.6119 66.144 24.4219 66.066 24.2619 65.91C24.1059 65.75 24.0279 65.56 24.0279 65.34C24.0279 65.112 24.1059 64.92 24.2619 64.764C24.4219 64.604 24.6119 64.524 24.8319 64.524C25.0599 64.524 25.2519 64.604 25.4079 64.764C25.5639 64.92 25.6419 65.112 25.6419 65.34C25.6419 65.56 25.5639 65.75 25.4079 65.91C25.2519 66.066 25.0599 66.144 24.8319 66.144Z" fill="#61D8DE"/>
</svg>
