<svg width="100" height="72" viewBox="0 0 100 72" fill="none" xmlns="http://www.w3.org/2000/svg">
<path d="M12.075 59.47V58.1875H18.2025V59.47H12.075ZM29.6531 59.47V58.1875H35.7806V59.47H29.6531ZM47.2313 59.47V58.1875H53.3588V59.47H47.2313ZM64.8094 59.47V58.1875H70.9369V59.47H64.8094ZM82.3875 59.47V58.1875H88.515V59.47H82.3875Z" fill="#61D8DE"/>
<rect x="1.5" y="40.5" width="97" height="27" stroke="#61D8DE" stroke-width="3"/>
<path d="M9.54 5.93C9.904 5.93 10.216 6.01 10.476 6.17C10.736 6.326 10.934 6.566 11.07 6.89C11.21 7.214 11.28 7.628 11.28 8.132V11H10.248V8.342C10.248 7.81 10.174 7.41 10.026 7.142C9.878 6.874 9.608 6.74 9.216 6.74C9.008 6.74 8.808 6.798 8.616 6.914C8.428 7.026 8.272 7.2 8.148 7.436C8.028 7.672 7.968 7.974 7.968 8.342V11H6.996V8.342C6.996 7.81 6.904 7.41 6.72 7.142C6.536 6.874 6.278 6.74 5.946 6.74C5.734 6.74 5.534 6.796 5.346 6.908C5.162 7.016 5.012 7.188 4.896 7.424C4.78 7.66 4.722 7.966 4.722 8.342V11H3.684V6.074H4.722V6.83C4.766 6.706 4.86 6.574 5.004 6.434C5.152 6.294 5.34 6.176 5.568 6.08C5.8 5.98 6.058 5.93 6.342 5.93C6.638 5.93 6.886 5.99 7.086 6.11C7.286 6.23 7.444 6.378 7.56 6.554C7.676 6.726 7.756 6.892 7.8 7.052C7.856 6.88 7.964 6.708 8.124 6.536C8.284 6.36 8.486 6.216 8.73 6.104C8.974 5.988 9.244 5.93 9.54 5.93ZM16.6838 11V10.04C16.6518 10.14 16.5578 10.278 16.4018 10.454C16.2498 10.63 16.0398 10.79 15.7718 10.934C15.5078 11.074 15.1958 11.144 14.8358 11.144C14.3798 11.144 13.9658 11.036 13.5938 10.82C13.2258 10.604 12.9318 10.302 12.7118 9.914C12.4958 9.522 12.3878 9.064 12.3878 8.54C12.3878 8.016 12.4958 7.56 12.7118 7.172C12.9318 6.78 13.2258 6.476 13.5938 6.26C13.9658 6.04 14.3798 5.93 14.8358 5.93C15.1918 5.93 15.4998 5.994 15.7598 6.122C16.0238 6.25 16.2338 6.398 16.3898 6.566C16.5498 6.734 16.6438 6.878 16.6718 6.998V6.074H17.7038V11H16.6838ZM13.4198 8.54C13.4198 8.896 13.4978 9.204 13.6538 9.464C13.8098 9.724 14.0118 9.926 14.2598 10.07C14.5118 10.21 14.7798 10.28 15.0638 10.28C15.3678 10.28 15.6398 10.208 15.8798 10.064C16.1198 9.92 16.3098 9.718 16.4498 9.458C16.5898 9.194 16.6598 8.888 16.6598 8.54C16.6598 8.192 16.5898 7.888 16.4498 7.628C16.3098 7.364 16.1198 7.16 15.8798 7.016C15.6398 6.868 15.3678 6.794 15.0638 6.794C14.7798 6.794 14.5118 6.866 14.2598 7.01C14.0118 7.154 13.8098 7.356 13.6538 7.616C13.4978 7.876 13.4198 8.184 13.4198 8.54ZM21.8528 5.93C22.1768 5.93 22.4908 5.998 22.7948 6.134C23.1028 6.27 23.3548 6.486 23.5508 6.782C23.7508 7.074 23.8508 7.456 23.8508 7.928V11H22.7948V8.132C22.7948 7.644 22.6808 7.29 22.4528 7.07C22.2248 6.846 21.9308 6.734 21.5708 6.734C21.3348 6.734 21.1068 6.802 20.8868 6.938C20.6708 7.07 20.4928 7.254 20.3528 7.49C20.2128 7.722 20.1428 7.986 20.1428 8.282V11H19.0988V6.074H20.1428V6.95C20.1788 6.814 20.2768 6.666 20.4368 6.506C20.5968 6.346 20.8008 6.21 21.0488 6.098C21.2968 5.986 21.5648 5.93 21.8528 5.93ZM31.8342 2.744H32.7282L28.7742 12.152H27.8802L31.8342 2.744ZM40.8713 11V10.04C40.8393 10.14 40.7453 10.278 40.5893 10.454C40.4373 10.63 40.2273 10.79 39.9593 10.934C39.6953 11.074 39.3833 11.144 39.0233 11.144C38.5673 11.144 38.1533 11.036 37.7812 10.82C37.4133 10.604 37.1193 10.302 36.8993 9.914C36.6833 9.522 36.5753 9.064 36.5753 8.54C36.5753 8.016 36.6833 7.56 36.8993 7.172C37.1193 6.78 37.4133 6.476 37.7812 6.26C38.1533 6.04 38.5673 5.93 39.0233 5.93C39.3793 5.93 39.6873 5.994 39.9473 6.122C40.2113 6.25 40.4213 6.398 40.5773 6.566C40.7373 6.734 40.8313 6.878 40.8593 6.998V6.074H41.8913V11H40.8713ZM37.6073 8.54C37.6073 8.896 37.6853 9.204 37.8413 9.464C37.9973 9.724 38.1993 9.926 38.4473 10.07C38.6993 10.21 38.9673 10.28 39.2513 10.28C39.5553 10.28 39.8273 10.208 40.0673 10.064C40.3073 9.92 40.4973 9.718 40.6373 9.458C40.7773 9.194 40.8473 8.888 40.8473 8.54C40.8473 8.192 40.7773 7.888 40.6373 7.628C40.4973 7.364 40.3073 7.16 40.0673 7.016C39.8273 6.868 39.5553 6.794 39.2513 6.794C38.9673 6.794 38.6993 6.866 38.4473 7.01C38.1993 7.154 37.9973 7.356 37.8413 7.616C37.6853 7.876 37.6073 8.184 37.6073 8.54ZM46.0403 5.93C46.3643 5.93 46.6783 5.998 46.9823 6.134C47.2903 6.27 47.5423 6.486 47.7383 6.782C47.9383 7.074 48.0383 7.456 48.0383 7.928V11H46.9823V8.132C46.9823 7.644 46.8683 7.29 46.6403 7.07C46.4123 6.846 46.1183 6.734 45.7583 6.734C45.5223 6.734 45.2943 6.802 45.0743 6.938C44.8583 7.07 44.6803 7.254 44.5403 7.49C44.4003 7.722 44.3303 7.986 44.3303 8.282V11H43.2863V6.074H44.3303V6.95C44.3663 6.814 44.4643 6.666 44.6243 6.506C44.7843 6.346 44.9883 6.21 45.2363 6.098C45.4843 5.986 45.7523 5.93 46.0403 5.93ZM56.0217 2.744H56.9157L52.9617 12.152H52.0677L56.0217 2.744ZM7.506 21.13C7.998 21.13 8.424 21.062 8.784 20.926C9.148 20.79 9.406 20.658 9.558 20.53L10.008 21.412C9.828 21.572 9.514 21.734 9.066 21.898C8.622 22.062 8.088 22.144 7.464 22.144C6.88 22.144 6.338 22.04 5.838 21.832C5.338 21.624 4.9 21.334 4.524 20.962C4.152 20.59 3.86 20.156 3.648 19.66C3.44 19.164 3.336 18.628 3.336 18.052C3.336 17.476 3.44 16.938 3.648 16.438C3.856 15.938 4.146 15.502 4.518 15.13C4.894 14.754 5.332 14.462 5.832 14.254C6.336 14.042 6.88 13.936 7.464 13.936C8.088 13.936 8.622 14.018 9.066 14.182C9.514 14.346 9.828 14.508 10.008 14.668L9.558 15.55C9.406 15.418 9.148 15.286 8.784 15.154C8.424 15.018 7.998 14.95 7.506 14.95C7.058 14.95 6.648 15.026 6.276 15.178C5.904 15.33 5.58 15.546 5.304 15.826C5.032 16.102 4.82 16.428 4.668 16.804C4.52 17.18 4.446 17.59 4.446 18.034C4.446 18.482 4.52 18.896 4.668 19.276C4.82 19.652 5.032 19.98 5.304 20.26C5.58 20.536 5.904 20.75 6.276 20.902C6.648 21.054 7.058 21.13 7.506 21.13ZM15.172 22V21.04C15.14 21.14 15.046 21.278 14.89 21.454C14.738 21.63 14.528 21.79 14.26 21.934C13.996 22.074 13.684 22.144 13.324 22.144C12.868 22.144 12.454 22.036 12.082 21.82C11.714 21.604 11.42 21.302 11.2 20.914C10.984 20.522 10.876 20.064 10.876 19.54C10.876 19.016 10.984 18.56 11.2 18.172C11.42 17.78 11.714 17.476 12.082 17.26C12.454 17.04 12.868 16.93 13.324 16.93C13.68 16.93 13.988 16.994 14.248 17.122C14.512 17.25 14.722 17.398 14.878 17.566C15.038 17.734 15.132 17.878 15.16 17.998V17.074H16.192V22H15.172ZM11.908 19.54C11.908 19.896 11.986 20.204 12.142 20.464C12.298 20.724 12.5 20.926 12.748 21.07C13 21.21 13.268 21.28 13.552 21.28C13.856 21.28 14.128 21.208 14.368 21.064C14.608 20.92 14.798 20.718 14.938 20.458C15.078 20.194 15.148 19.888 15.148 19.54C15.148 19.192 15.078 18.888 14.938 18.628C14.798 18.364 14.608 18.16 14.368 18.016C14.128 17.868 13.856 17.794 13.552 17.794C13.268 17.794 13 17.866 12.748 18.01C12.5 18.154 12.298 18.356 12.142 18.616C11.986 18.876 11.908 19.184 11.908 19.54ZM20.341 16.93C20.665 16.93 20.979 16.998 21.283 17.134C21.591 17.27 21.843 17.486 22.039 17.782C22.239 18.074 22.339 18.456 22.339 18.928V22H21.283V19.132C21.283 18.644 21.169 18.29 20.941 18.07C20.713 17.846 20.419 17.734 20.059 17.734C19.823 17.734 19.595 17.802 19.375 17.938C19.159 18.07 18.981 18.254 18.841 18.49C18.701 18.722 18.631 18.986 18.631 19.282V22H17.587V17.074H18.631V17.95C18.667 17.814 18.765 17.666 18.925 17.506C19.085 17.346 19.289 17.21 19.537 17.098C19.785 16.986 20.053 16.93 20.341 16.93ZM27.6642 22V21.04C27.6322 21.14 27.5382 21.278 27.3822 21.454C27.2302 21.63 27.0202 21.79 26.7522 21.934C26.4882 22.074 26.1762 22.144 25.8162 22.144C25.3602 22.144 24.9462 22.036 24.5742 21.82C24.2062 21.604 23.9122 21.302 23.6922 20.914C23.4762 20.522 23.3682 20.064 23.3682 19.54C23.3682 19.016 23.4762 18.56 23.6922 18.172C23.9122 17.78 24.2062 17.476 24.5742 17.26C24.9462 17.04 25.3602 16.93 25.8162 16.93C26.1722 16.93 26.4802 16.994 26.7402 17.122C27.0042 17.25 27.2142 17.398 27.3702 17.566C27.5302 17.734 27.6242 17.878 27.6522 17.998V17.074H28.6842V22H27.6642ZM24.4002 19.54C24.4002 19.896 24.4782 20.204 24.6342 20.464C24.7902 20.724 24.9922 20.926 25.2402 21.07C25.4922 21.21 25.7602 21.28 26.0442 21.28C26.3482 21.28 26.6202 21.208 26.8602 21.064C27.1002 20.92 27.2902 20.718 27.4302 20.458C27.5702 20.194 27.6402 19.888 27.6402 19.54C27.6402 19.192 27.5702 18.888 27.4302 18.628C27.2902 18.364 27.1002 18.16 26.8602 18.016C26.6202 17.868 26.3482 17.794 26.0442 17.794C25.7602 17.794 25.4922 17.866 25.2402 18.01C24.9922 18.154 24.7902 18.356 24.6342 18.616C24.4782 18.876 24.4002 19.184 24.4002 19.54ZM32.2512 22.144C31.7992 22.144 31.3932 22.036 31.0332 21.82C30.6772 21.604 30.3952 21.302 30.1872 20.914C29.9832 20.522 29.8812 20.064 29.8812 19.54C29.8812 19.016 29.9832 18.56 30.1872 18.172C30.3952 17.78 30.6772 17.476 31.0332 17.26C31.3932 17.04 31.7992 16.93 32.2512 16.93C32.6152 16.93 32.9352 16.994 33.2112 17.122C33.4872 17.246 33.7072 17.392 33.8712 17.56C34.0352 17.728 34.1292 17.874 34.1532 17.998V13.744H35.2032V22H34.1712V21.04C34.1272 21.176 34.0172 21.33 33.8412 21.502C33.6692 21.674 33.4472 21.824 33.1752 21.952C32.9032 22.08 32.5952 22.144 32.2512 22.144ZM32.4912 21.28C32.7952 21.28 33.0732 21.208 33.3252 21.064C33.5772 20.92 33.7772 20.718 33.9252 20.458C34.0772 20.194 34.1532 19.888 34.1532 19.54C34.1532 19.192 34.0772 18.888 33.9252 18.628C33.7772 18.364 33.5772 18.16 33.3252 18.016C33.0732 17.868 32.7952 17.794 32.4912 17.794C32.2112 17.794 31.9512 17.866 31.7112 18.01C31.4712 18.154 31.2772 18.356 31.1292 18.616C30.9852 18.876 30.9132 19.184 30.9132 19.54C30.9132 19.896 30.9852 20.204 31.1292 20.464C31.2772 20.724 31.4712 20.926 31.7112 21.07C31.9512 21.21 32.2112 21.28 32.4912 21.28ZM36.4862 22V17.074H37.5302V22H36.4862ZM37.0202 15.388C36.8322 15.388 36.6702 15.322 36.5342 15.19C36.4022 15.054 36.3362 14.892 36.3362 14.704C36.3362 14.516 36.4022 14.354 36.5342 14.218C36.6702 14.082 36.8322 14.014 37.0202 14.014C37.1442 14.014 37.2582 14.046 37.3622 14.11C37.4702 14.174 37.5562 14.258 37.6202 14.362C37.6842 14.462 37.7162 14.576 37.7162 14.704C37.7162 14.892 37.6482 15.054 37.5122 15.19C37.3762 15.322 37.2122 15.388 37.0202 15.388ZM43.0861 22V21.04C43.0541 21.14 42.9601 21.278 42.8041 21.454C42.6521 21.63 42.4421 21.79 42.1741 21.934C41.9101 22.074 41.5981 22.144 41.2381 22.144C40.7821 22.144 40.3681 22.036 39.9961 21.82C39.6281 21.604 39.3341 21.302 39.1141 20.914C38.8981 20.522 38.7901 20.064 38.7901 19.54C38.7901 19.016 38.8981 18.56 39.1141 18.172C39.3341 17.78 39.6281 17.476 39.9961 17.26C40.3681 17.04 40.7821 16.93 41.2381 16.93C41.5941 16.93 41.9021 16.994 42.1621 17.122C42.4261 17.25 42.6361 17.398 42.7921 17.566C42.9521 17.734 43.0461 17.878 43.0741 17.998V17.074H44.1061V22H43.0861ZM39.8221 19.54C39.8221 19.896 39.9001 20.204 40.0561 20.464C40.2121 20.724 40.4141 20.926 40.6621 21.07C40.9141 21.21 41.1821 21.28 41.4661 21.28C41.7701 21.28 42.0421 21.208 42.2821 21.064C42.5221 20.92 42.7121 20.718 42.8521 20.458C42.9921 20.194 43.0621 19.888 43.0621 19.54C43.0621 19.192 42.9921 18.888 42.8521 18.628C42.7121 18.364 42.5221 18.16 42.2821 18.016C42.0421 17.868 41.7701 17.794 41.4661 17.794C41.1821 17.794 40.9141 17.866 40.6621 18.01C40.4141 18.154 40.2121 18.356 40.0561 18.616C39.9001 18.876 39.8221 19.184 39.8221 19.54ZM48.2551 16.93C48.5791 16.93 48.8931 16.998 49.1971 17.134C49.5051 17.27 49.7571 17.486 49.9531 17.782C50.1531 18.074 50.2531 18.456 50.2531 18.928V22H49.1971V19.132C49.1971 18.644 49.0831 18.29 48.8551 18.07C48.6271 17.846 48.3331 17.734 47.9731 17.734C47.7371 17.734 47.5091 17.802 47.2891 17.938C47.0731 18.07 46.8951 18.254 46.7551 18.49C46.6151 18.722 46.5451 18.986 46.5451 19.282V22H45.5011V17.074H46.5451V17.95C46.5811 17.814 46.6791 17.666 46.8391 17.506C46.9991 17.346 47.2031 17.21 47.4511 17.098C47.6991 16.986 47.9671 16.93 48.2551 16.93ZM58.2366 13.744H59.1306L55.1766 23.152H54.2826L58.2366 13.744ZM65.5936 22.144C65.0856 22.144 64.6336 22.03 64.2376 21.802C63.8456 21.574 63.5376 21.266 63.3136 20.878C63.0896 20.486 62.9776 20.044 62.9776 19.552C62.9776 19.06 63.0896 18.616 63.3136 18.22C63.5376 17.824 63.8456 17.51 64.2376 17.278C64.6336 17.046 65.0856 16.93 65.5936 16.93C66.0976 16.93 66.5436 17.046 66.9316 17.278C67.3236 17.51 67.6296 17.824 67.8496 18.22C68.0696 18.616 68.1796 19.06 68.1796 19.552C68.1796 20.044 68.0696 20.486 67.8496 20.878C67.6296 21.266 67.3236 21.574 66.9316 21.802C66.5436 22.03 66.0976 22.144 65.5936 22.144ZM65.5936 21.25C65.9136 21.25 66.1916 21.176 66.4276 21.028C66.6676 20.88 66.8536 20.678 66.9856 20.422C67.1176 20.162 67.1836 19.87 67.1836 19.546C67.1836 19.222 67.1176 18.93 66.9856 18.67C66.8536 18.41 66.6676 18.204 66.4276 18.052C66.1916 17.9 65.9136 17.824 65.5936 17.824C65.2696 17.824 64.9876 17.9 64.7476 18.052C64.5076 18.204 64.3196 18.41 64.1836 18.67C64.0516 18.93 63.9856 19.222 63.9856 19.546C63.9856 19.87 64.0516 20.162 64.1836 20.422C64.3196 20.678 64.5076 20.88 64.7476 21.028C64.9876 21.176 65.2696 21.25 65.5936 21.25ZM70.423 22H69.373V13.744H70.423V22ZM74.0989 22.144C73.6469 22.144 73.2409 22.036 72.8809 21.82C72.5249 21.604 72.2429 21.302 72.0349 20.914C71.8309 20.522 71.7289 20.064 71.7289 19.54C71.7289 19.016 71.8309 18.56 72.0349 18.172C72.2429 17.78 72.5249 17.476 72.8809 17.26C73.2409 17.04 73.6469 16.93 74.0989 16.93C74.4629 16.93 74.7829 16.994 75.0589 17.122C75.3349 17.246 75.5549 17.392 75.7189 17.56C75.8829 17.728 75.9769 17.874 76.0009 17.998V13.744H77.0509V22H76.0189V21.04C75.9749 21.176 75.8649 21.33 75.6889 21.502C75.5169 21.674 75.2949 21.824 75.0229 21.952C74.7509 22.08 74.4429 22.144 74.0989 22.144ZM74.3389 21.28C74.6429 21.28 74.9209 21.208 75.1729 21.064C75.4249 20.92 75.6249 20.718 75.7729 20.458C75.9249 20.194 76.0009 19.888 76.0009 19.54C76.0009 19.192 75.9249 18.888 75.7729 18.628C75.6249 18.364 75.4249 18.16 75.1729 18.016C74.9209 17.868 74.6429 17.794 74.3389 17.794C74.0589 17.794 73.7989 17.866 73.5589 18.01C73.3189 18.154 73.1249 18.356 72.9769 18.616C72.8329 18.876 72.7609 19.184 72.7609 19.54C72.7609 19.896 72.8329 20.204 72.9769 20.464C73.1249 20.724 73.3189 20.926 73.5589 21.07C73.7989 21.21 74.0589 21.28 74.3389 21.28ZM84.8381 13.744H85.7321L81.7781 23.152H80.8841L84.8381 13.744ZM3.744 33V28.074H4.788V33H3.744ZM4.278 26.388C4.09 26.388 3.928 26.322 3.792 26.19C3.66 26.054 3.594 25.892 3.594 25.704C3.594 25.516 3.66 25.354 3.792 25.218C3.928 25.082 4.09 25.014 4.278 25.014C4.402 25.014 4.516 25.046 4.62 25.11C4.728 25.174 4.814 25.258 4.878 25.362C4.942 25.462 4.974 25.576 4.974 25.704C4.974 25.892 4.906 26.054 4.77 26.19C4.634 26.322 4.47 26.388 4.278 26.388ZM9.13791 27.93C9.46191 27.93 9.77591 27.998 10.0799 28.134C10.3879 28.27 10.6399 28.486 10.8359 28.782C11.0359 29.074 11.1359 29.456 11.1359 29.928V33H10.0799V30.132C10.0799 29.644 9.96591 29.29 9.73791 29.07C9.50991 28.846 9.21591 28.734 8.85591 28.734C8.61991 28.734 8.39191 28.802 8.17191 28.938C7.95591 29.07 7.77791 29.254 7.63791 29.49C7.49791 29.722 7.42791 29.986 7.42791 30.282V33H6.38391V28.074H7.42791V28.95C7.46391 28.814 7.56191 28.666 7.72191 28.506C7.88191 28.346 8.08591 28.21 8.33391 28.098C8.58191 27.986 8.84991 27.93 9.13791 27.93ZM12.0811 28.074H13.0471V26.052H14.0851V28.074H15.3511V28.968H14.0851V31.404C14.0851 31.692 14.1351 31.904 14.2351 32.04C14.3391 32.176 14.4771 32.244 14.6491 32.244C14.8011 32.244 14.9191 32.216 15.0031 32.16C15.0871 32.104 15.1371 32.066 15.1531 32.046L15.5671 32.814C15.5431 32.834 15.4791 32.872 15.3751 32.928C15.2711 32.984 15.1371 33.034 14.9731 33.078C14.8091 33.122 14.6171 33.144 14.3971 33.144C14.0131 33.144 13.6911 33.028 13.4311 32.796C13.1751 32.56 13.0471 32.188 13.0471 31.68V28.968H12.0811V28.074ZM17.1278 30.75C17.1318 31.046 17.1958 31.316 17.3198 31.56C17.4438 31.804 17.6278 31.998 17.8718 32.142C18.1198 32.286 18.4238 32.358 18.7838 32.358C19.0878 32.358 19.3458 32.314 19.5578 32.226C19.7738 32.134 19.9498 32.026 20.0858 31.902C20.2218 31.774 20.3198 31.66 20.3798 31.56L20.8898 32.19C20.7578 32.382 20.5958 32.55 20.4038 32.694C20.2158 32.838 19.9858 32.948 19.7138 33.024C19.4418 33.104 19.1098 33.144 18.7178 33.144C18.1898 33.144 17.7318 33.032 17.3438 32.808C16.9598 32.58 16.6638 32.266 16.4558 31.866C16.2478 31.462 16.1438 31 16.1438 30.48C16.1438 30 16.2418 29.568 16.4378 29.184C16.6338 28.796 16.9178 28.49 17.2898 28.266C17.6658 28.042 18.1178 27.93 18.6458 27.93C19.1298 27.93 19.5498 28.032 19.9058 28.236C20.2658 28.436 20.5438 28.72 20.7398 29.088C20.9398 29.456 21.0398 29.896 21.0398 30.408C21.0398 30.44 21.0378 30.498 21.0338 30.582C21.0298 30.662 21.0258 30.718 21.0218 30.75H17.1278ZM20.0438 29.964C20.0398 29.8 19.9918 29.62 19.8998 29.424C19.8118 29.228 19.6678 29.06 19.4678 28.92C19.2678 28.78 18.9978 28.71 18.6578 28.71C18.3058 28.71 18.0218 28.778 17.8058 28.914C17.5938 29.05 17.4378 29.216 17.3378 29.412C17.2378 29.604 17.1798 29.788 17.1638 29.964H20.0438ZM23.2785 33H22.2285V24.744H23.2785V33ZM25.8683 33H24.8183V24.744H25.8683V33ZM27.4862 33V28.074H28.5302V33H27.4862ZM28.0202 26.388C27.8322 26.388 27.6702 26.322 27.5342 26.19C27.4022 26.054 27.3362 25.892 27.3362 25.704C27.3362 25.516 27.4022 25.354 27.5342 25.218C27.6702 25.082 27.8322 25.014 28.0202 25.014C28.1442 25.014 28.2582 25.046 28.3622 25.11C28.4702 25.174 28.5562 25.258 28.6202 25.362C28.6842 25.462 28.7162 25.576 28.7162 25.704C28.7162 25.892 28.6482 26.054 28.5122 26.19C28.3762 26.322 28.2122 26.388 28.0202 26.388ZM32.4781 35.634C32.0901 35.634 31.7381 35.594 31.4221 35.514C31.1101 35.434 30.8361 35.32 30.6001 35.172C30.3681 35.028 30.1821 34.858 30.0421 34.662L30.7261 34.008C30.8021 34.112 30.9041 34.222 31.0321 34.338C31.1641 34.458 31.3421 34.56 31.5661 34.644C31.7901 34.728 32.0821 34.77 32.4421 34.77C32.7941 34.77 33.0921 34.694 33.3361 34.542C33.5801 34.394 33.7661 34.192 33.8941 33.936C34.0221 33.68 34.0861 33.392 34.0861 33.072V32.91H35.1061V33.138C35.1061 33.682 34.9881 34.138 34.7521 34.506C34.5201 34.878 34.2061 35.158 33.8101 35.346C33.4141 35.538 32.9701 35.634 32.4781 35.634ZM34.0861 33V32.04C34.0541 32.14 33.9601 32.278 33.8041 32.454C33.6521 32.63 33.4421 32.79 33.1741 32.934C32.9101 33.074 32.5981 33.144 32.2381 33.144C31.7821 33.144 31.3681 33.036 30.9961 32.82C30.6281 32.604 30.3341 32.302 30.1141 31.914C29.8981 31.522 29.7901 31.064 29.7901 30.54C29.7901 30.016 29.8981 29.56 30.1141 29.172C30.3341 28.78 30.6281 28.476 30.9961 28.26C31.3681 28.04 31.7821 27.93 32.2381 27.93C32.5941 27.93 32.9021 27.994 33.1621 28.122C33.4261 28.25 33.6361 28.398 33.7921 28.566C33.9521 28.734 34.0461 28.878 34.0741 28.998V28.074H35.1061V33H34.0861ZM30.8221 30.54C30.8221 30.896 30.9001 31.204 31.0561 31.464C31.2121 31.724 31.4141 31.926 31.6621 32.07C31.9141 32.21 32.1821 32.28 32.4661 32.28C32.7701 32.28 33.0421 32.208 33.2821 32.064C33.5221 31.92 33.7121 31.718 33.8521 31.458C33.9921 31.194 34.0621 30.888 34.0621 30.54C34.0621 30.192 33.9921 29.888 33.8521 29.628C33.7121 29.364 33.5221 29.16 33.2821 29.016C33.0421 28.868 32.7701 28.794 32.4661 28.794C32.1821 28.794 31.9141 28.866 31.6621 29.01C31.4141 29.154 31.2121 29.356 31.0561 29.616C30.9001 29.876 30.8221 30.184 30.8221 30.54ZM37.202 30.75C37.206 31.046 37.27 31.316 37.394 31.56C37.518 31.804 37.702 31.998 37.946 32.142C38.194 32.286 38.498 32.358 38.858 32.358C39.162 32.358 39.42 32.314 39.632 32.226C39.848 32.134 40.024 32.026 40.16 31.902C40.296 31.774 40.394 31.66 40.454 31.56L40.964 32.19C40.832 32.382 40.67 32.55 40.478 32.694C40.29 32.838 40.06 32.948 39.788 33.024C39.516 33.104 39.184 33.144 38.792 33.144C38.264 33.144 37.806 33.032 37.418 32.808C37.034 32.58 36.738 32.266 36.53 31.866C36.322 31.462 36.218 31 36.218 30.48C36.218 30 36.316 29.568 36.512 29.184C36.708 28.796 36.992 28.49 37.364 28.266C37.74 28.042 38.192 27.93 38.72 27.93C39.204 27.93 39.624 28.032 39.98 28.236C40.34 28.436 40.618 28.72 40.814 29.088C41.014 29.456 41.114 29.896 41.114 30.408C41.114 30.44 41.112 30.498 41.108 30.582C41.104 30.662 41.1 30.718 41.096 30.75H37.202ZM40.118 29.964C40.114 29.8 40.066 29.62 39.974 29.424C39.886 29.228 39.742 29.06 39.542 28.92C39.342 28.78 39.072 28.71 38.732 28.71C38.38 28.71 38.096 28.778 37.88 28.914C37.668 29.05 37.512 29.216 37.412 29.412C37.312 29.604 37.254 29.788 37.238 29.964H40.118ZM45.0207 27.93C45.3447 27.93 45.6587 27.998 45.9627 28.134C46.2707 28.27 46.5227 28.486 46.7187 28.782C46.9187 29.074 47.0187 29.456 47.0187 29.928V33H45.9627V30.132C45.9627 29.644 45.8487 29.29 45.6207 29.07C45.3927 28.846 45.0987 28.734 44.7387 28.734C44.5027 28.734 44.2747 28.802 44.0547 28.938C43.8387 29.07 43.6607 29.254 43.5207 29.49C43.3807 29.722 43.3107 29.986 43.3107 30.282V33H42.2667V28.074H43.3107V28.95C43.3467 28.814 43.4447 28.666 43.6047 28.506C43.7647 28.346 43.9687 28.21 44.2167 28.098C44.4647 27.986 44.7327 27.93 45.0207 27.93ZM47.9639 28.074H48.9299V26.052H49.9679V28.074H51.2339V28.968H49.9679V31.404C49.9679 31.692 50.0179 31.904 50.1179 32.04C50.2219 32.176 50.3599 32.244 50.5319 32.244C50.6839 32.244 50.8019 32.216 50.8859 32.16C50.9699 32.104 51.0199 32.066 51.0359 32.046L51.4499 32.814C51.4259 32.834 51.3619 32.872 51.2579 32.928C51.1539 32.984 51.0199 33.034 50.8559 33.078C50.6919 33.122 50.4999 33.144 50.2799 33.144C49.8959 33.144 49.5739 33.028 49.3139 32.796C49.0579 32.56 48.9299 32.188 48.9299 31.68V28.968H47.9639V28.074Z" fill="#61D8DE"/>
</svg>
