<svg width="100" height="72" viewBox="0 0 100 72" fill="none" xmlns="http://www.w3.org/2000/svg">
<path d="M9.59 44V43.04C9.558 43.14 9.464 43.278 9.308 43.454C9.156 43.63 8.946 43.79 8.678 43.934C8.414 44.074 8.102 44.144 7.742 44.144C7.286 44.144 6.872 44.036 6.5 43.82C6.132 43.604 5.838 43.302 5.618 42.914C5.402 42.522 5.294 42.064 5.294 41.54C5.294 41.016 5.402 40.56 5.618 40.172C5.838 39.78 6.132 39.476 6.5 39.26C6.872 39.04 7.286 38.93 7.742 38.93C8.098 38.93 8.406 38.994 8.666 39.122C8.93 39.25 9.14 39.398 9.296 39.566C9.456 39.734 9.55 39.878 9.578 39.998V39.074H10.61V44H9.59ZM6.326 41.54C6.326 41.896 6.404 42.204 6.56 42.464C6.716 42.724 6.918 42.926 7.166 43.07C7.418 43.21 7.686 43.28 7.97 43.28C8.274 43.28 8.546 43.208 8.786 43.064C9.026 42.92 9.216 42.718 9.356 42.458C9.496 42.194 9.566 41.888 9.566 41.54C9.566 41.192 9.496 40.888 9.356 40.628C9.216 40.364 9.026 40.16 8.786 40.016C8.546 39.868 8.274 39.794 7.97 39.794C7.686 39.794 7.418 39.866 7.166 40.01C6.918 40.154 6.716 40.356 6.56 40.616C6.404 40.876 6.326 41.184 6.326 41.54ZM12.497 46.436L11.849 46.064C12.041 45.812 12.239 45.448 12.443 44.972C12.651 44.5 12.827 43.938 12.971 43.286C13.115 42.634 13.187 41.922 13.187 41.15C13.187 40.326 13.111 39.572 12.959 38.888C12.807 38.204 12.621 37.614 12.401 37.118C12.185 36.618 11.977 36.24 11.777 35.984L12.449 35.624C12.629 35.852 12.815 36.15 13.007 36.518C13.203 36.886 13.385 37.31 13.553 37.79C13.721 38.27 13.857 38.794 13.961 39.362C14.065 39.93 14.117 40.526 14.117 41.15C14.117 41.958 14.029 42.71 13.853 43.406C13.681 44.102 13.469 44.71 13.217 45.23C12.969 45.75 12.729 46.152 12.497 46.436ZM15.6853 41.72V40.814H18.7753V41.72H15.6853ZM17.8907 41.72V40.814H20.9807V41.72H17.8907ZM20.0962 41.72V40.814H23.1862V41.72H20.0962ZM22.3017 41.72V40.814H25.3917V41.72H22.3017ZM24.5071 41.72V40.814H27.5971V41.72H24.5071ZM26.7126 41.72V40.814H29.8026V41.72H26.7126ZM28.9181 41.72V40.814H32.0081V41.72H28.9181Z" fill="#61D8DE"/>
<path d="M7.952 59.28C8.264 59.28 8.516 59.23 8.708 59.13C8.9 59.03 9.02 58.958 9.068 58.914L9.578 59.664C9.538 59.7 9.442 59.758 9.29 59.838C9.142 59.914 8.95 59.984 8.714 60.048C8.482 60.112 8.218 60.144 7.922 60.144C7.47 60.144 7.05 60.044 6.662 59.844C6.274 59.64 5.96 59.344 5.72 58.956C5.484 58.568 5.366 58.094 5.366 57.534C5.366 56.97 5.484 56.496 5.72 56.112C5.96 55.724 6.274 55.43 6.662 55.23C7.05 55.03 7.47 54.93 7.922 54.93C8.214 54.93 8.474 54.966 8.702 55.038C8.93 55.106 9.118 55.182 9.266 55.266C9.414 55.35 9.512 55.414 9.56 55.458L9.044 56.208C9.012 56.176 8.95 56.128 8.858 56.064C8.77 55.996 8.65 55.934 8.498 55.878C8.346 55.822 8.164 55.794 7.952 55.794C7.696 55.794 7.446 55.864 7.202 56.004C6.962 56.14 6.764 56.338 6.608 56.598C6.452 56.858 6.374 57.17 6.374 57.534C6.374 57.898 6.452 58.212 6.608 58.476C6.764 58.736 6.962 58.936 7.202 59.076C7.446 59.212 7.696 59.28 7.952 59.28ZM11.1025 62.436L10.4545 62.064C10.6465 61.812 10.8445 61.448 11.0485 60.972C11.2565 60.5 11.4325 59.938 11.5765 59.286C11.7205 58.634 11.7925 57.922 11.7925 57.15C11.7925 56.326 11.7165 55.572 11.5645 54.888C11.4125 54.204 11.2265 53.614 11.0065 53.118C10.7905 52.618 10.5825 52.24 10.3825 51.984L11.0545 51.624C11.2345 51.852 11.4205 52.15 11.6125 52.518C11.8085 52.886 11.9905 53.31 12.1585 53.79C12.3265 54.27 12.4625 54.794 12.5665 55.362C12.6705 55.93 12.7225 56.526 12.7225 57.15C12.7225 57.958 12.6345 58.71 12.4585 59.406C12.2865 60.102 12.0745 60.71 11.8225 61.23C11.5745 61.75 11.3345 62.152 11.1025 62.436ZM14.2907 57.72V56.814H17.3807V57.72H14.2907ZM16.4962 57.72V56.814H19.5862V57.72H16.4962ZM18.7017 57.72V56.814H21.7917V57.72H18.7017ZM20.9071 57.72V56.814H23.9971V57.72H20.9071ZM23.1126 57.72V56.814H26.2026V57.72H23.1126ZM25.3181 57.72V56.814H28.4081V57.72H25.3181ZM27.5235 57.72V56.814H30.6135V57.72H27.5235ZM29.729 57.72V56.814H32.819V57.72H29.729ZM31.9345 57.72V56.814H35.0245V57.72H31.9345ZM34.1399 57.72V56.814H37.2299V57.72H34.1399Z" fill="#61D8DE"/>
<path d="M55.606 44V35.744H56.662V39.998C56.686 39.874 56.78 39.728 56.944 39.56C57.108 39.392 57.328 39.246 57.604 39.122C57.88 38.994 58.198 38.93 58.558 38.93C59.018 38.93 59.426 39.04 59.782 39.26C60.138 39.476 60.418 39.78 60.622 40.172C60.83 40.56 60.934 41.016 60.934 41.54C60.934 42.064 60.83 42.522 60.622 42.914C60.418 43.302 60.138 43.604 59.782 43.82C59.426 44.036 59.018 44.144 58.558 44.144C58.218 44.144 57.91 44.08 57.634 43.952C57.362 43.824 57.14 43.674 56.968 43.502C56.796 43.33 56.688 43.176 56.644 43.04V44H55.606ZM59.896 41.54C59.896 41.184 59.824 40.876 59.68 40.616C59.536 40.356 59.344 40.154 59.104 40.01C58.868 39.866 58.608 39.794 58.324 39.794C58.016 39.794 57.736 39.868 57.484 40.016C57.232 40.16 57.032 40.364 56.884 40.628C56.736 40.888 56.662 41.192 56.662 41.54C56.662 41.888 56.736 42.194 56.884 42.458C57.032 42.718 57.232 42.92 57.484 43.064C57.736 43.208 58.016 43.28 58.324 43.28C58.608 43.28 58.868 43.21 59.104 43.07C59.344 42.926 59.536 42.724 59.68 42.464C59.824 42.204 59.896 41.896 59.896 41.54ZM62.415 46.436L61.767 46.064C61.959 45.812 62.157 45.448 62.361 44.972C62.569 44.5 62.745 43.938 62.889 43.286C63.033 42.634 63.105 41.922 63.105 41.15C63.105 40.326 63.029 39.572 62.877 38.888C62.725 38.204 62.539 37.614 62.319 37.118C62.103 36.618 61.895 36.24 61.695 35.984L62.367 35.624C62.547 35.852 62.733 36.15 62.925 36.518C63.121 36.886 63.303 37.31 63.471 37.79C63.639 38.27 63.775 38.794 63.879 39.362C63.983 39.93 64.035 40.526 64.035 41.15C64.035 41.958 63.947 42.71 63.771 43.406C63.599 44.102 63.387 44.71 63.135 45.23C62.887 45.75 62.647 46.152 62.415 46.436ZM65.6032 41.72V40.814H68.6932V41.72H65.6032ZM67.8087 41.72V40.814H70.8987V41.72H67.8087ZM70.0142 41.72V40.814H73.1042V41.72H70.0142ZM72.2196 41.72V40.814H75.3096V41.72H72.2196ZM74.4251 41.72V40.814H77.5151V41.72H74.4251ZM76.6306 41.72V40.814H79.7206V41.72H76.6306ZM78.836 41.72V40.814H81.926V41.72H78.836ZM81.0415 41.72V40.814H84.1315V41.72H81.0415ZM83.247 41.72V40.814H86.337V41.72H83.247ZM85.4524 41.72V40.814H88.5424V41.72H85.4524ZM87.6579 41.72V40.814H90.7479V41.72H87.6579ZM89.8634 41.72V40.814H92.9534V41.72H89.8634Z" fill="#61D8DE"/>
<path d="M57.802 60.144C57.35 60.144 56.944 60.036 56.584 59.82C56.228 59.604 55.946 59.302 55.738 58.914C55.534 58.522 55.432 58.064 55.432 57.54C55.432 57.016 55.534 56.56 55.738 56.172C55.946 55.78 56.228 55.476 56.584 55.26C56.944 55.04 57.35 54.93 57.802 54.93C58.166 54.93 58.486 54.994 58.762 55.122C59.038 55.246 59.258 55.392 59.422 55.56C59.586 55.728 59.68 55.874 59.704 55.998V51.744H60.754V60H59.722V59.04C59.678 59.176 59.568 59.33 59.392 59.502C59.22 59.674 58.998 59.824 58.726 59.952C58.454 60.08 58.146 60.144 57.802 60.144ZM58.042 59.28C58.346 59.28 58.624 59.208 58.876 59.064C59.128 58.92 59.328 58.718 59.476 58.458C59.628 58.194 59.704 57.888 59.704 57.54C59.704 57.192 59.628 56.888 59.476 56.628C59.328 56.364 59.128 56.16 58.876 56.016C58.624 55.868 58.346 55.794 58.042 55.794C57.762 55.794 57.502 55.866 57.262 56.01C57.022 56.154 56.828 56.356 56.68 56.616C56.536 56.876 56.464 57.184 56.464 57.54C56.464 57.896 56.536 58.204 56.68 58.464C56.828 58.724 57.022 58.926 57.262 59.07C57.502 59.21 57.762 59.28 58.042 59.28ZM62.415 62.436L61.767 62.064C61.959 61.812 62.157 61.448 62.361 60.972C62.569 60.5 62.745 59.938 62.889 59.286C63.033 58.634 63.105 57.922 63.105 57.15C63.105 56.326 63.029 55.572 62.877 54.888C62.725 54.204 62.539 53.614 62.319 53.118C62.103 52.618 61.895 52.24 61.695 51.984L62.367 51.624C62.547 51.852 62.733 52.15 62.925 52.518C63.121 52.886 63.303 53.31 63.471 53.79C63.639 54.27 63.775 54.794 63.879 55.362C63.983 55.93 64.035 56.526 64.035 57.15C64.035 57.958 63.947 58.71 63.771 59.406C63.599 60.102 63.387 60.71 63.135 61.23C62.887 61.75 62.647 62.152 62.415 62.436ZM65.6032 57.72V56.814H68.6932V57.72H65.6032ZM67.8087 57.72V56.814H70.8987V57.72H67.8087ZM70.0142 57.72V56.814H73.1042V57.72H70.0142ZM72.2196 57.72V56.814H75.3096V57.72H72.2196ZM74.4251 57.72V56.814H77.5151V57.72H74.4251ZM76.6306 57.72V56.814H79.7206V57.72H76.6306ZM78.836 57.72V56.814H81.926V57.72H78.836ZM81.0415 57.72V56.814H84.1315V57.72H81.0415ZM83.247 57.72V56.814H86.337V57.72H83.247Z" fill="#61D8DE"/>
<rect x="0.5" y="27.5" width="99" height="44" stroke="#61D8DE"/>
<path d="M10.614 11H9.324L7.644 4.274H7.842L6.156 11H4.866L3.198 3.08H4.368L5.574 9.662H5.556L7.272 3.08H8.208L9.924 9.662H9.906L11.118 3.08H12.282L10.614 11ZM16.3106 5.93C16.6346 5.93 16.9486 5.998 17.2526 6.134C17.5606 6.27 17.8126 6.486 18.0086 6.782C18.2086 7.074 18.3086 7.456 18.3086 7.928V11H17.2526V8.132C17.2526 7.644 17.1406 7.29 16.9166 7.07C16.6966 6.846 16.4066 6.734 16.0466 6.734C15.8066 6.734 15.5766 6.802 15.3566 6.938C15.1366 7.07 14.9546 7.254 14.8106 7.49C14.6706 7.722 14.6006 7.986 14.6006 8.282V11H13.5446V2.744H14.6006V6.95C14.6366 6.814 14.7326 6.666 14.8886 6.506C15.0486 6.346 15.2526 6.21 15.5006 6.098C15.7486 5.986 16.0186 5.93 16.3106 5.93ZM23.6798 11V10.04C23.6478 10.14 23.5538 10.278 23.3978 10.454C23.2458 10.63 23.0358 10.79 22.7678 10.934C22.5038 11.074 22.1918 11.144 21.8318 11.144C21.3758 11.144 20.9618 11.036 20.5898 10.82C20.2218 10.604 19.9278 10.302 19.7078 9.914C19.4918 9.522 19.3838 9.064 19.3838 8.54C19.3838 8.016 19.4918 7.56 19.7078 7.172C19.9278 6.78 20.2218 6.476 20.5898 6.26C20.9618 6.04 21.3758 5.93 21.8318 5.93C22.1878 5.93 22.4958 5.994 22.7558 6.122C23.0198 6.25 23.2298 6.398 23.3858 6.566C23.5458 6.734 23.6398 6.878 23.6678 6.998V6.074H24.6998V11H23.6798ZM20.4158 8.54C20.4158 8.896 20.4938 9.204 20.6498 9.464C20.8058 9.724 21.0078 9.926 21.2558 10.07C21.5078 10.21 21.7758 10.28 22.0598 10.28C22.3638 10.28 22.6358 10.208 22.8758 10.064C23.1158 9.92 23.3058 9.718 23.4458 9.458C23.5858 9.194 23.6558 8.888 23.6558 8.54C23.6558 8.192 23.5858 7.888 23.4458 7.628C23.3058 7.364 23.1158 7.16 22.8758 7.016C22.6358 6.868 22.3638 6.794 22.0598 6.794C21.7758 6.794 21.5078 6.866 21.2558 7.01C21.0078 7.154 20.8058 7.356 20.6498 7.616C20.4938 7.876 20.4158 8.184 20.4158 8.54ZM25.6748 6.074H26.6408V4.052H27.6788V6.074H28.9448V6.968H27.6788V9.404C27.6788 9.692 27.7288 9.904 27.8288 10.04C27.9328 10.176 28.0708 10.244 28.2428 10.244C28.3948 10.244 28.5128 10.216 28.5968 10.16C28.6808 10.104 28.7308 10.066 28.7468 10.046L29.1608 10.814C29.1368 10.834 29.0728 10.872 28.9688 10.928C28.8648 10.984 28.7308 11.034 28.5668 11.078C28.4028 11.122 28.2108 11.144 27.9908 11.144C27.6068 11.144 27.2848 11.028 27.0248 10.796C26.7688 10.56 26.6408 10.188 26.6408 9.68V6.968H25.6748V6.074ZM33.1698 11V6.074H34.2138V11H33.1698ZM33.7038 4.388C33.5158 4.388 33.3538 4.322 33.2178 4.19C33.0858 4.054 33.0198 3.892 33.0198 3.704C33.0198 3.516 33.0858 3.354 33.2178 3.218C33.3538 3.082 33.5158 3.014 33.7038 3.014C33.8278 3.014 33.9418 3.046 34.0458 3.11C34.1538 3.174 34.2398 3.258 34.3038 3.362C34.3678 3.462 34.3998 3.576 34.3998 3.704C34.3998 3.892 34.3318 4.054 34.1958 4.19C34.0598 4.322 33.8958 4.388 33.7038 4.388ZM37.6577 5.93C37.9137 5.93 38.1517 5.956 38.3717 6.008C38.5957 6.06 38.7877 6.122 38.9477 6.194C39.1117 6.266 39.2277 6.33 39.2957 6.386L38.8817 7.046C38.8017 6.974 38.6577 6.894 38.4497 6.806C38.2417 6.714 38.0097 6.668 37.7537 6.668C37.4737 6.668 37.2357 6.724 37.0397 6.836C36.8437 6.944 36.7457 7.102 36.7457 7.31C36.7457 7.518 36.8457 7.684 37.0457 7.808C37.2497 7.928 37.5217 8.028 37.8617 8.108C38.1337 8.172 38.3877 8.258 38.6237 8.366C38.8637 8.474 39.0577 8.624 39.2057 8.816C39.3537 9.004 39.4277 9.256 39.4277 9.572C39.4277 9.86 39.3677 10.106 39.2477 10.31C39.1277 10.51 38.9657 10.672 38.7617 10.796C38.5577 10.916 38.3297 11.004 38.0777 11.06C37.8257 11.116 37.5697 11.144 37.3097 11.144C37.0057 11.144 36.7317 11.112 36.4877 11.048C36.2437 10.988 36.0377 10.916 35.8697 10.832C35.7057 10.744 35.5857 10.668 35.5097 10.604L35.9237 9.86C36.0277 9.96 36.1977 10.066 36.4337 10.178C36.6737 10.29 36.9457 10.346 37.2497 10.346C37.5857 10.346 37.8577 10.276 38.0657 10.136C38.2737 9.992 38.3777 9.806 38.3777 9.578C38.3777 9.406 38.3277 9.268 38.2277 9.164C38.1277 9.06 37.9937 8.976 37.8257 8.912C37.6577 8.848 37.4737 8.792 37.2737 8.744C37.0817 8.7 36.8937 8.642 36.7097 8.57C36.5297 8.498 36.3637 8.406 36.2117 8.294C36.0637 8.178 35.9457 8.038 35.8577 7.874C35.7697 7.706 35.7257 7.51 35.7257 7.286C35.7257 7.002 35.8157 6.76 35.9957 6.56C36.1757 6.356 36.4117 6.2 36.7037 6.092C36.9957 5.984 37.3137 5.93 37.6577 5.93ZM43.2061 6.074H44.1721V4.052H45.2101V6.074H46.4761V6.968H45.2101V9.404C45.2101 9.692 45.2601 9.904 45.3601 10.04C45.4641 10.176 45.6021 10.244 45.7741 10.244C45.9261 10.244 46.0441 10.216 46.1281 10.16C46.2121 10.104 46.2621 10.066 46.2781 10.046L46.6921 10.814C46.6681 10.834 46.6041 10.872 46.5001 10.928C46.3961 10.984 46.2621 11.034 46.0981 11.078C45.9341 11.122 45.7421 11.144 45.5221 11.144C45.1381 11.144 44.8161 11.028 44.5561 10.796C44.3001 10.56 44.1721 10.188 44.1721 9.68V6.968H43.2061V6.074ZM50.3888 5.93C50.7128 5.93 51.0268 5.998 51.3308 6.134C51.6388 6.27 51.8908 6.486 52.0868 6.782C52.2868 7.074 52.3868 7.456 52.3868 7.928V11H51.3308V8.132C51.3308 7.644 51.2188 7.29 50.9948 7.07C50.7748 6.846 50.4848 6.734 50.1248 6.734C49.8848 6.734 49.6548 6.802 49.4348 6.938C49.2148 7.07 49.0328 7.254 48.8888 7.49C48.7488 7.722 48.6788 7.986 48.6788 8.282V11H47.6228V2.744H48.6788V6.95C48.7148 6.814 48.8108 6.666 48.9668 6.506C49.1268 6.346 49.3308 6.21 49.5788 6.098C49.8268 5.986 50.0968 5.93 50.3888 5.93ZM54.452 8.75C54.456 9.046 54.52 9.316 54.644 9.56C54.768 9.804 54.952 9.998 55.196 10.142C55.444 10.286 55.748 10.358 56.108 10.358C56.412 10.358 56.67 10.314 56.882 10.226C57.098 10.134 57.274 10.026 57.41 9.902C57.546 9.774 57.644 9.66 57.704 9.56L58.214 10.19C58.082 10.382 57.92 10.55 57.728 10.694C57.54 10.838 57.31 10.948 57.038 11.024C56.766 11.104 56.434 11.144 56.042 11.144C55.514 11.144 55.056 11.032 54.668 10.808C54.284 10.58 53.988 10.266 53.78 9.866C53.572 9.462 53.468 9 53.468 8.48C53.468 8 53.566 7.568 53.762 7.184C53.958 6.796 54.242 6.49 54.614 6.266C54.99 6.042 55.442 5.93 55.97 5.93C56.454 5.93 56.874 6.032 57.23 6.236C57.59 6.436 57.868 6.72 58.064 7.088C58.264 7.456 58.364 7.896 58.364 8.408C58.364 8.44 58.362 8.498 58.358 8.582C58.354 8.662 58.35 8.718 58.346 8.75H54.452ZM57.368 7.964C57.364 7.8 57.316 7.62 57.224 7.424C57.136 7.228 56.992 7.06 56.792 6.92C56.592 6.78 56.322 6.71 55.982 6.71C55.63 6.71 55.346 6.778 55.13 6.914C54.918 7.05 54.762 7.216 54.662 7.412C54.562 7.604 54.504 7.788 54.488 7.964H57.368ZM4.686 24.496H3.648V17.074H4.704V17.998C4.74 17.874 4.84 17.728 5.004 17.56C5.168 17.392 5.388 17.246 5.664 17.122C5.944 16.994 6.264 16.93 6.624 16.93C7.08 16.93 7.484 17.04 7.836 17.26C8.192 17.476 8.47 17.78 8.67 18.172C8.874 18.56 8.976 19.016 8.976 19.54C8.976 20.064 8.872 20.522 8.664 20.914C8.456 21.302 8.172 21.604 7.812 21.82C7.456 22.036 7.048 22.144 6.588 22.144C6.216 22.144 5.89 22.074 5.61 21.934C5.334 21.794 5.116 21.636 4.956 21.46C4.8 21.284 4.71 21.144 4.686 21.04V24.496ZM7.944 19.54C7.944 19.184 7.87 18.876 7.722 18.616C7.578 18.356 7.386 18.154 7.146 18.01C6.906 17.866 6.646 17.794 6.366 17.794C6.058 17.794 5.778 17.868 5.526 18.016C5.274 18.16 5.074 18.364 4.926 18.628C4.778 18.888 4.704 19.192 4.704 19.54C4.704 19.888 4.778 20.194 4.926 20.458C5.074 20.718 5.274 20.92 5.526 21.064C5.778 21.208 6.058 21.28 6.366 21.28C6.646 21.28 6.906 21.21 7.146 21.07C7.386 20.926 7.578 20.724 7.722 20.464C7.87 20.204 7.944 19.896 7.944 19.54ZM14.0236 22V21.04C13.9916 21.14 13.8976 21.278 13.7416 21.454C13.5896 21.63 13.3796 21.79 13.1116 21.934C12.8476 22.074 12.5356 22.144 12.1756 22.144C11.7196 22.144 11.3056 22.036 10.9336 21.82C10.5656 21.604 10.2716 21.302 10.0516 20.914C9.83559 20.522 9.72759 20.064 9.72759 19.54C9.72759 19.016 9.83559 18.56 10.0516 18.172C10.2716 17.78 10.5656 17.476 10.9336 17.26C11.3056 17.04 11.7196 16.93 12.1756 16.93C12.5316 16.93 12.8396 16.994 13.0996 17.122C13.3636 17.25 13.5736 17.398 13.7296 17.566C13.8896 17.734 13.9836 17.878 14.0116 17.998V17.074H15.0436V22H14.0236ZM10.7596 19.54C10.7596 19.896 10.8376 20.204 10.9936 20.464C11.1496 20.724 11.3516 20.926 11.5996 21.07C11.8516 21.21 12.1196 21.28 12.4036 21.28C12.7076 21.28 12.9796 21.208 13.2196 21.064C13.4596 20.92 13.6496 20.718 13.7896 20.458C13.9296 20.194 13.9996 19.888 13.9996 19.54C13.9996 19.192 13.9296 18.888 13.7896 18.628C13.6496 18.364 13.4596 18.16 13.2196 18.016C12.9796 17.868 12.7076 17.794 12.4036 17.794C12.1196 17.794 11.8516 17.866 11.5996 18.01C11.3516 18.154 11.1496 18.356 10.9936 18.616C10.8376 18.876 10.7596 19.184 10.7596 19.54ZM18.2866 16.93C18.5426 16.93 18.7806 16.956 19.0006 17.008C19.2246 17.06 19.4166 17.122 19.5766 17.194C19.7406 17.266 19.8566 17.33 19.9246 17.386L19.5106 18.046C19.4306 17.974 19.2866 17.894 19.0786 17.806C18.8706 17.714 18.6386 17.668 18.3826 17.668C18.1026 17.668 17.8646 17.724 17.6686 17.836C17.4726 17.944 17.3746 18.102 17.3746 18.31C17.3746 18.518 17.4746 18.684 17.6746 18.808C17.8786 18.928 18.1506 19.028 18.4906 19.108C18.7626 19.172 19.0166 19.258 19.2526 19.366C19.4926 19.474 19.6866 19.624 19.8346 19.816C19.9826 20.004 20.0566 20.256 20.0566 20.572C20.0566 20.86 19.9966 21.106 19.8766 21.31C19.7566 21.51 19.5946 21.672 19.3906 21.796C19.1866 21.916 18.9586 22.004 18.7066 22.06C18.4546 22.116 18.1986 22.144 17.9386 22.144C17.6346 22.144 17.3606 22.112 17.1166 22.048C16.8726 21.988 16.6666 21.916 16.4986 21.832C16.3346 21.744 16.2146 21.668 16.1386 21.604L16.5526 20.86C16.6566 20.96 16.8266 21.066 17.0626 21.178C17.3026 21.29 17.5746 21.346 17.8786 21.346C18.2146 21.346 18.4866 21.276 18.6946 21.136C18.9026 20.992 19.0066 20.806 19.0066 20.578C19.0066 20.406 18.9566 20.268 18.8566 20.164C18.7566 20.06 18.6226 19.976 18.4546 19.912C18.2866 19.848 18.1026 19.792 17.9026 19.744C17.7106 19.7 17.5226 19.642 17.3386 19.57C17.1586 19.498 16.9926 19.406 16.8406 19.294C16.6926 19.178 16.5746 19.038 16.4866 18.874C16.3986 18.706 16.3546 18.51 16.3546 18.286C16.3546 18.002 16.4446 17.76 16.6246 17.56C16.8046 17.356 17.0406 17.2 17.3326 17.092C17.6246 16.984 17.9426 16.93 18.2866 16.93ZM23.1147 16.93C23.3707 16.93 23.6087 16.956 23.8287 17.008C24.0527 17.06 24.2447 17.122 24.4047 17.194C24.5687 17.266 24.6847 17.33 24.7527 17.386L24.3387 18.046C24.2587 17.974 24.1147 17.894 23.9067 17.806C23.6987 17.714 23.4667 17.668 23.2107 17.668C22.9307 17.668 22.6927 17.724 22.4967 17.836C22.3007 17.944 22.2027 18.102 22.2027 18.31C22.2027 18.518 22.3027 18.684 22.5027 18.808C22.7067 18.928 22.9787 19.028 23.3187 19.108C23.5907 19.172 23.8447 19.258 24.0807 19.366C24.3207 19.474 24.5147 19.624 24.6627 19.816C24.8107 20.004 24.8847 20.256 24.8847 20.572C24.8847 20.86 24.8247 21.106 24.7047 21.31C24.5847 21.51 24.4227 21.672 24.2187 21.796C24.0147 21.916 23.7867 22.004 23.5347 22.06C23.2827 22.116 23.0267 22.144 22.7667 22.144C22.4627 22.144 22.1887 22.112 21.9447 22.048C21.7007 21.988 21.4947 21.916 21.3267 21.832C21.1627 21.744 21.0427 21.668 20.9667 21.604L21.3807 20.86C21.4847 20.96 21.6547 21.066 21.8907 21.178C22.1307 21.29 22.4027 21.346 22.7067 21.346C23.0427 21.346 23.3147 21.276 23.5227 21.136C23.7307 20.992 23.8347 20.806 23.8347 20.578C23.8347 20.406 23.7847 20.268 23.6847 20.164C23.5847 20.06 23.4507 19.976 23.2827 19.912C23.1147 19.848 22.9307 19.792 22.7307 19.744C22.5387 19.7 22.3507 19.642 22.1667 19.57C21.9867 19.498 21.8207 19.406 21.6687 19.294C21.5207 19.178 21.4027 19.038 21.3147 18.874C21.2267 18.706 21.1827 18.51 21.1827 18.286C21.1827 18.002 21.2727 17.76 21.4527 17.56C21.6327 17.356 21.8687 17.2 22.1607 17.092C22.4527 16.984 22.7707 16.93 23.1147 16.93ZM30.0548 22V21.04C30.0228 21.14 29.9288 21.278 29.7728 21.454C29.6208 21.63 29.4108 21.79 29.1428 21.934C28.8788 22.074 28.5668 22.144 28.2068 22.144C27.7508 22.144 27.3368 22.036 26.9648 21.82C26.5968 21.604 26.3028 21.302 26.0828 20.914C25.8668 20.522 25.7588 20.064 25.7588 19.54C25.7588 19.016 25.8668 18.56 26.0828 18.172C26.3028 17.78 26.5968 17.476 26.9648 17.26C27.3368 17.04 27.7508 16.93 28.2068 16.93C28.5628 16.93 28.8708 16.994 29.1308 17.122C29.3948 17.25 29.6048 17.398 29.7608 17.566C29.9208 17.734 30.0148 17.878 30.0428 17.998V17.074H31.0748V22H30.0548ZM26.7908 19.54C26.7908 19.896 26.8688 20.204 27.0248 20.464C27.1808 20.724 27.3828 20.926 27.6308 21.07C27.8828 21.21 28.1508 21.28 28.4348 21.28C28.7388 21.28 29.0108 21.208 29.2508 21.064C29.4908 20.92 29.6808 20.718 29.8208 20.458C29.9608 20.194 30.0308 19.888 30.0308 19.54C30.0308 19.192 29.9608 18.888 29.8208 18.628C29.6808 18.364 29.4908 18.16 29.2508 18.016C29.0108 17.868 28.7388 17.794 28.4348 17.794C28.1508 17.794 27.8828 17.866 27.6308 18.01C27.3828 18.154 27.1808 18.356 27.0248 18.616C26.8688 18.876 26.7908 19.184 26.7908 19.54ZM34.8218 24.634C34.4338 24.634 34.0818 24.594 33.7658 24.514C33.4538 24.434 33.1798 24.32 32.9438 24.172C32.7118 24.028 32.5258 23.858 32.3858 23.662L33.0698 23.008C33.1458 23.112 33.2478 23.222 33.3758 23.338C33.5078 23.458 33.6858 23.56 33.9098 23.644C34.1338 23.728 34.4258 23.77 34.7858 23.77C35.1378 23.77 35.4358 23.694 35.6798 23.542C35.9238 23.394 36.1098 23.192 36.2378 22.936C36.3658 22.68 36.4298 22.392 36.4298 22.072V21.91H37.4498V22.138C37.4498 22.682 37.3318 23.138 37.0958 23.506C36.8638 23.878 36.5498 24.158 36.1538 24.346C35.7578 24.538 35.3138 24.634 34.8218 24.634ZM36.4298 22V21.04C36.3978 21.14 36.3038 21.278 36.1478 21.454C35.9958 21.63 35.7858 21.79 35.5178 21.934C35.2538 22.074 34.9418 22.144 34.5818 22.144C34.1258 22.144 33.7118 22.036 33.3398 21.82C32.9718 21.604 32.6778 21.302 32.4578 20.914C32.2418 20.522 32.1338 20.064 32.1338 19.54C32.1338 19.016 32.2418 18.56 32.4578 18.172C32.6778 17.78 32.9718 17.476 33.3398 17.26C33.7118 17.04 34.1258 16.93 34.5818 16.93C34.9378 16.93 35.2458 16.994 35.5058 17.122C35.7698 17.25 35.9798 17.398 36.1358 17.566C36.2958 17.734 36.3898 17.878 36.4178 17.998V17.074H37.4498V22H36.4298ZM33.1658 19.54C33.1658 19.896 33.2438 20.204 33.3998 20.464C33.5558 20.724 33.7578 20.926 34.0058 21.07C34.2578 21.21 34.5258 21.28 34.8098 21.28C35.1138 21.28 35.3858 21.208 35.6258 21.064C35.8658 20.92 36.0558 20.718 36.1958 20.458C36.3358 20.194 36.4058 19.888 36.4058 19.54C36.4058 19.192 36.3358 18.888 36.1958 18.628C36.0558 18.364 35.8658 18.16 35.6258 18.016C35.3858 17.868 35.1138 17.794 34.8098 17.794C34.5258 17.794 34.2578 17.866 34.0058 18.01C33.7578 18.154 33.5558 18.356 33.3998 18.616C33.2438 18.876 33.1658 19.184 33.1658 19.54ZM39.5457 19.75C39.5497 20.046 39.6137 20.316 39.7377 20.56C39.8617 20.804 40.0457 20.998 40.2897 21.142C40.5377 21.286 40.8417 21.358 41.2017 21.358C41.5057 21.358 41.7637 21.314 41.9757 21.226C42.1917 21.134 42.3677 21.026 42.5037 20.902C42.6397 20.774 42.7377 20.66 42.7977 20.56L43.3077 21.19C43.1757 21.382 43.0137 21.55 42.8217 21.694C42.6337 21.838 42.4037 21.948 42.1317 22.024C41.8597 22.104 41.5277 22.144 41.1357 22.144C40.6077 22.144 40.1497 22.032 39.7617 21.808C39.3777 21.58 39.0817 21.266 38.8737 20.866C38.6657 20.462 38.5617 20 38.5617 19.48C38.5617 19 38.6597 18.568 38.8557 18.184C39.0517 17.796 39.3357 17.49 39.7077 17.266C40.0837 17.042 40.5357 16.93 41.0637 16.93C41.5477 16.93 41.9677 17.032 42.3237 17.236C42.6837 17.436 42.9617 17.72 43.1577 18.088C43.3577 18.456 43.4577 18.896 43.4577 19.408C43.4577 19.44 43.4557 19.498 43.4517 19.582C43.4477 19.662 43.4437 19.718 43.4397 19.75H39.5457ZM42.4617 18.964C42.4577 18.8 42.4097 18.62 42.3177 18.424C42.2297 18.228 42.0857 18.06 41.8857 17.92C41.6857 17.78 41.4157 17.71 41.0757 17.71C40.7237 17.71 40.4397 17.778 40.2237 17.914C40.0117 18.05 39.8557 18.216 39.7557 18.412C39.6557 18.604 39.5977 18.788 39.5817 18.964H42.4617ZM51.5588 22V21.04C51.5268 21.14 51.4328 21.278 51.2768 21.454C51.1248 21.63 50.9148 21.79 50.6468 21.934C50.3828 22.074 50.0708 22.144 49.7108 22.144C49.2548 22.144 48.8408 22.036 48.4688 21.82C48.1008 21.604 47.8068 21.302 47.5868 20.914C47.3708 20.522 47.2628 20.064 47.2628 19.54C47.2628 19.016 47.3708 18.56 47.5868 18.172C47.8068 17.78 48.1008 17.476 48.4688 17.26C48.8408 17.04 49.2548 16.93 49.7108 16.93C50.0668 16.93 50.3748 16.994 50.6348 17.122C50.8988 17.25 51.1088 17.398 51.2648 17.566C51.4248 17.734 51.5188 17.878 51.5468 17.998V17.074H52.5788V22H51.5588ZM48.2948 19.54C48.2948 19.896 48.3728 20.204 48.5288 20.464C48.6848 20.724 48.8868 20.926 49.1348 21.07C49.3868 21.21 49.6548 21.28 49.9388 21.28C50.2428 21.28 50.5148 21.208 50.7548 21.064C50.9948 20.92 51.1848 20.718 51.3248 20.458C51.4648 20.194 51.5348 19.888 51.5348 19.54C51.5348 19.192 51.4648 18.888 51.3248 18.628C51.1848 18.364 50.9948 18.16 50.7548 18.016C50.5148 17.868 50.2428 17.794 49.9388 17.794C49.6548 17.794 49.3868 17.866 49.1348 18.01C48.8868 18.154 48.6848 18.356 48.5288 18.616C48.3728 18.876 48.2948 19.184 48.2948 19.54ZM53.9498 22V13.744H55.0058V17.998C55.0298 17.874 55.1238 17.728 55.2878 17.56C55.4518 17.392 55.6718 17.246 55.9478 17.122C56.2238 16.994 56.5418 16.93 56.9018 16.93C57.3618 16.93 57.7698 17.04 58.1258 17.26C58.4818 17.476 58.7618 17.78 58.9658 18.172C59.1738 18.56 59.2778 19.016 59.2778 19.54C59.2778 20.064 59.1738 20.522 58.9658 20.914C58.7618 21.302 58.4818 21.604 58.1258 21.82C57.7698 22.036 57.3618 22.144 56.9018 22.144C56.5618 22.144 56.2538 22.08 55.9778 21.952C55.7058 21.824 55.4838 21.674 55.3118 21.502C55.1398 21.33 55.0318 21.176 54.9878 21.04V22H53.9498ZM58.2398 19.54C58.2398 19.184 58.1678 18.876 58.0238 18.616C57.8798 18.356 57.6878 18.154 57.4478 18.01C57.2118 17.866 56.9518 17.794 56.6678 17.794C56.3598 17.794 56.0798 17.868 55.8278 18.016C55.5758 18.16 55.3758 18.364 55.2278 18.628C55.0798 18.888 55.0058 19.192 55.0058 19.54C55.0058 19.888 55.0798 20.194 55.2278 20.458C55.3758 20.718 55.5758 20.92 55.8278 21.064C56.0798 21.208 56.3598 21.28 56.6678 21.28C56.9518 21.28 57.2118 21.21 57.4478 21.07C57.6878 20.926 57.8798 20.724 58.0238 20.464C58.1678 20.204 58.2398 19.896 58.2398 19.54ZM62.5467 22.144C62.0387 22.144 61.5867 22.03 61.1907 21.802C60.7987 21.574 60.4907 21.266 60.2667 20.878C60.0427 20.486 59.9307 20.044 59.9307 19.552C59.9307 19.06 60.0427 18.616 60.2667 18.22C60.4907 17.824 60.7987 17.51 61.1907 17.278C61.5867 17.046 62.0387 16.93 62.5467 16.93C63.0507 16.93 63.4967 17.046 63.8847 17.278C64.2767 17.51 64.5827 17.824 64.8027 18.22C65.0227 18.616 65.1327 19.06 65.1327 19.552C65.1327 20.044 65.0227 20.486 64.8027 20.878C64.5827 21.266 64.2767 21.574 63.8847 21.802C63.4967 22.03 63.0507 22.144 62.5467 22.144ZM62.5467 21.25C62.8667 21.25 63.1447 21.176 63.3807 21.028C63.6207 20.88 63.8067 20.678 63.9387 20.422C64.0707 20.162 64.1367 19.87 64.1367 19.546C64.1367 19.222 64.0707 18.93 63.9387 18.67C63.8067 18.41 63.6207 18.204 63.3807 18.052C63.1447 17.9 62.8667 17.824 62.5467 17.824C62.2227 17.824 61.9407 17.9 61.7007 18.052C61.4607 18.204 61.2727 18.41 61.1367 18.67C61.0047 18.93 60.9387 19.222 60.9387 19.546C60.9387 19.87 61.0047 20.162 61.1367 20.422C61.2727 20.678 61.4607 20.88 61.7007 21.028C61.9407 21.176 62.2227 21.25 62.5467 21.25ZM67.2682 19.558C67.2682 20.074 67.3782 20.486 67.5982 20.794C67.8222 21.098 68.1642 21.25 68.6242 21.25C69.0882 21.25 69.4302 21.098 69.6502 20.794C69.8702 20.486 69.9802 20.074 69.9802 19.558V17.074H71.0122V19.702C71.0122 20.182 70.9182 20.606 70.7302 20.974C70.5462 21.342 70.2762 21.63 69.9202 21.838C69.5682 22.042 69.1362 22.144 68.6242 22.144C68.1162 22.144 67.6842 22.042 67.3282 21.838C66.9762 21.63 66.7062 21.342 66.5182 20.974C66.3342 20.606 66.2422 20.182 66.2422 19.702V17.074H67.2682V19.558ZM71.9639 17.074H72.9299V15.052H73.9679V17.074H75.2339V17.968H73.9679V20.404C73.9679 20.692 74.0179 20.904 74.1179 21.04C74.2219 21.176 74.3599 21.244 74.5319 21.244C74.6839 21.244 74.8019 21.216 74.8859 21.16C74.9699 21.104 75.0199 21.066 75.0359 21.046L75.4499 21.814C75.4259 21.834 75.3619 21.872 75.2579 21.928C75.1539 21.984 75.0199 22.034 74.8559 22.078C74.6919 22.122 74.4999 22.144 74.2799 22.144C73.8959 22.144 73.5739 22.028 73.3139 21.796C73.0579 21.56 72.9299 21.188 72.9299 20.68V17.968H71.9639V17.074ZM77.8566 19.804V18.346C77.8566 18.102 77.9106 17.912 78.0186 17.776C78.1266 17.64 78.2786 17.516 78.4746 17.404C78.6506 17.296 78.8286 17.17 79.0086 17.026C79.1886 16.878 79.3386 16.708 79.4586 16.516C79.5826 16.324 79.6446 16.108 79.6446 15.868C79.6446 15.52 79.5226 15.262 79.2786 15.094C79.0346 14.922 78.7106 14.836 78.3066 14.836C78.0226 14.836 77.7786 14.894 77.5746 15.01C77.3706 15.126 77.2066 15.264 77.0826 15.424C76.9626 15.58 76.8826 15.724 76.8426 15.856L75.9726 15.484C75.9806 15.42 76.0186 15.328 76.0866 15.208C76.1546 15.084 76.2506 14.95 76.3746 14.806C76.5026 14.662 76.6626 14.524 76.8546 14.392C77.0466 14.26 77.2726 14.152 77.5326 14.068C77.7926 13.98 78.0866 13.936 78.4146 13.936C78.8826 13.936 79.2906 14.012 79.6386 14.164C79.9906 14.312 80.2626 14.522 80.4546 14.794C80.6466 15.062 80.7426 15.378 80.7426 15.742C80.7426 16.078 80.6666 16.374 80.5146 16.63C80.3626 16.882 80.1686 17.106 79.9326 17.302C79.7006 17.494 79.4626 17.67 79.2186 17.83C79.0426 17.938 78.9266 18.054 78.8706 18.178C78.8146 18.298 78.7866 18.474 78.7866 18.706V19.804H77.8566ZM78.3306 22.144C78.1106 22.144 77.9206 22.066 77.7606 21.91C77.6046 21.75 77.5266 21.56 77.5266 21.34C77.5266 21.112 77.6046 20.92 77.7606 20.764C77.9206 20.604 78.1106 20.524 78.3306 20.524C78.5546 20.524 78.7446 20.604 78.9006 20.764C79.0606 20.92 79.1406 21.112 79.1406 21.34C79.1406 21.56 79.0606 21.75 78.9006 21.91C78.7446 22.066 78.5546 22.144 78.3306 22.144Z" fill="#61D8DE"/>
</svg>
