<svg width="100" height="72" viewBox="0 0 100 72" fill="none" xmlns="http://www.w3.org/2000/svg">
<g clip-path="url(#clip0_373_327)">
<path d="M22.6825 9.1H28.405V11.065H24.925V13.06H28.1425V15.0175H24.925V19H22.6825V9.1ZM32.0345 9.1H36.0695C36.6445 9.1 37.157 9.22 37.607 9.46C38.057 9.7 38.412 10.0475 38.672 10.5025C38.937 10.9525 39.0695 11.49 39.0695 12.115C39.0695 12.74 38.957 13.2525 38.732 13.6525C38.512 14.0475 38.247 14.345 37.937 14.545C37.627 14.74 37.3395 14.8575 37.0745 14.8975L39.482 19H36.962L34.817 15.07H34.277V19H32.0345V9.1ZM34.277 13.5175H35.267C35.667 13.5175 36.017 13.42 36.317 13.225C36.617 13.03 36.767 12.685 36.767 12.19C36.767 11.695 36.6195 11.3525 36.3245 11.1625C36.0295 10.9675 35.682 10.87 35.282 10.87H34.277V13.5175ZM48.929 9.1H51.1715V15.1825C51.1715 15.9975 51.0115 16.705 50.6915 17.305C50.3715 17.9 49.914 18.3625 49.319 18.6925C48.724 19.0175 48.014 19.18 47.189 19.18C46.359 19.18 45.644 19.0175 45.044 18.6925C44.444 18.3625 43.984 17.9 43.664 17.305C43.349 16.705 43.1915 15.9975 43.1915 15.1825V9.1H45.4265V15.0625C45.4265 15.5125 45.4965 15.8925 45.6365 16.2025C45.7815 16.5125 45.9865 16.7475 46.2515 16.9075C46.5165 17.0625 46.829 17.14 47.189 17.14C47.544 17.14 47.8515 17.0625 48.1115 16.9075C48.3715 16.7475 48.5715 16.5125 48.7115 16.2025C48.8565 15.8925 48.929 15.5125 48.929 15.0625V9.1ZM55.0898 9.1H57.3323V19H55.0898V9.1ZM63.0427 11.065H60.6802V9.1H67.6402V11.065H65.2852V19H63.0427V11.065ZM74.7017 8.92C75.3167 8.92 75.8542 8.9875 76.3142 9.1225C76.7742 9.2575 77.1442 9.4 77.4242 9.55C77.7042 9.7 77.8742 9.8 77.9342 9.85L76.8542 11.6575C76.7742 11.5975 76.6367 11.51 76.4417 11.395C76.2517 11.28 76.0242 11.1775 75.7592 11.0875C75.4992 10.9975 75.2267 10.9525 74.9417 10.9525C74.5567 10.9525 74.2442 11.0225 74.0042 11.1625C73.7692 11.2975 73.6517 11.5 73.6517 11.77C73.6517 11.955 73.7142 12.1225 73.8392 12.2725C73.9692 12.4175 74.1642 12.5575 74.4242 12.6925C74.6892 12.8225 75.0242 12.965 75.4292 13.12C75.7992 13.255 76.1467 13.415 76.4717 13.6C76.7967 13.785 77.0817 14.005 77.3267 14.26C77.5767 14.51 77.7742 14.8 77.9192 15.13C78.0642 15.46 78.1367 15.835 78.1367 16.255C78.1367 16.755 78.0342 17.19 77.8292 17.56C77.6242 17.925 77.3442 18.2275 76.9892 18.4675C76.6392 18.7075 76.2392 18.885 75.7892 19C75.3442 19.12 74.8817 19.18 74.4017 19.18C73.7217 19.18 73.1117 19.1025 72.5717 18.9475C72.0367 18.7925 71.6042 18.625 71.2742 18.445C70.9442 18.265 70.7467 18.145 70.6817 18.085L71.7992 16.2025C71.8592 16.2475 71.9742 16.32 72.1442 16.42C72.3192 16.52 72.5317 16.625 72.7817 16.735C73.0317 16.84 73.2967 16.93 73.5767 17.005C73.8617 17.08 74.1417 17.1175 74.4167 17.1175C74.8767 17.1175 75.2217 17.03 75.4517 16.855C75.6817 16.675 75.7967 16.44 75.7967 16.15C75.7967 15.935 75.7242 15.7425 75.5792 15.5725C75.4342 15.4025 75.2167 15.2425 74.9267 15.0925C74.6367 14.9375 74.2742 14.775 73.8392 14.605C73.4042 14.43 72.9967 14.2175 72.6167 13.9675C72.2417 13.7175 71.9367 13.405 71.7017 13.03C71.4667 12.655 71.3492 12.19 71.3492 11.635C71.3492 11.08 71.5042 10.6 71.8142 10.195C72.1292 9.785 72.5417 9.47 73.0517 9.25C73.5667 9.03 74.1167 8.92 74.7017 8.92Z" fill="#61D8DE"/>
<rect x="1.5" y="1.5" width="97" height="27" stroke="#61D8DE" stroke-width="3"/>
<path d="M7.40664 39.035C7.61664 39.035 7.80497 39.085 7.97164 39.185C8.13831 39.2817 8.27164 39.415 8.37164 39.585C8.47164 39.7517 8.52164 39.94 8.52164 40.15C8.52164 40.3533 8.47164 40.5383 8.37164 40.705C8.27164 40.8717 8.13831 41.005 7.97164 41.105C7.80497 41.2017 7.61664 41.25 7.40664 41.25C7.20331 41.25 7.01831 41.2017 6.85164 41.105C6.68497 41.005 6.55164 40.8717 6.45164 40.705C6.35497 40.5383 6.30664 40.3533 6.30664 40.15C6.30664 39.9433 6.35497 39.7567 6.45164 39.59C6.55164 39.42 6.68497 39.285 6.85164 39.185C7.01831 39.085 7.20331 39.035 7.40664 39.035ZM17.55 36.4H18.44L20.88 43H19.965L19.395 41.41H16.595L16.015 43H15.1L17.55 36.4ZM16.87 40.64H19.125L18.005 37.45H17.99L16.87 40.64ZM22.4402 45.08H21.5752V38.895H22.4552V39.665C22.4852 39.5617 22.5685 39.44 22.7052 39.3C22.8418 39.16 23.0252 39.0383 23.2552 38.935C23.4885 38.8283 23.7552 38.775 24.0552 38.775C24.4352 38.775 24.7718 38.8667 25.0652 39.05C25.3618 39.23 25.5935 39.4833 25.7602 39.81C25.9302 40.1333 26.0152 40.5133 26.0152 40.95C26.0152 41.3867 25.9285 41.7683 25.7552 42.095C25.5818 42.4183 25.3452 42.67 25.0452 42.85C24.7485 43.03 24.4085 43.12 24.0252 43.12C23.7152 43.12 23.4435 43.0617 23.2102 42.945C22.9802 42.8283 22.7985 42.6967 22.6652 42.55C22.5352 42.4033 22.4602 42.2867 22.4402 42.2V45.08ZM25.1552 40.95C25.1552 40.6533 25.0935 40.3967 24.9702 40.18C24.8502 39.9633 24.6902 39.795 24.4902 39.675C24.2902 39.555 24.0735 39.495 23.8402 39.495C23.5835 39.495 23.3502 39.5567 23.1402 39.68C22.9302 39.8 22.7635 39.97 22.6402 40.19C22.5168 40.4067 22.4552 40.66 22.4552 40.95C22.4552 41.24 22.5168 41.495 22.6402 41.715C22.7635 41.9317 22.9302 42.1 23.1402 42.22C23.3502 42.34 23.5835 42.4 23.8402 42.4C24.0735 42.4 24.2902 42.3417 24.4902 42.225C24.6902 42.105 24.8502 41.9367 24.9702 41.72C25.0935 41.5033 25.1552 41.2467 25.1552 40.95ZM27.8015 45.08H26.9365V38.895H27.8165V39.665C27.8465 39.5617 27.9298 39.44 28.0665 39.3C28.2032 39.16 28.3865 39.0383 28.6165 38.935C28.8498 38.8283 29.1165 38.775 29.4165 38.775C29.7965 38.775 30.1332 38.8667 30.4265 39.05C30.7232 39.23 30.9548 39.4833 31.1215 39.81C31.2915 40.1333 31.3765 40.5133 31.3765 40.95C31.3765 41.3867 31.2898 41.7683 31.1165 42.095C30.9432 42.4183 30.7065 42.67 30.4065 42.85C30.1098 43.03 29.7698 43.12 29.3865 43.12C29.0765 43.12 28.8048 43.0617 28.5715 42.945C28.3415 42.8283 28.1598 42.6967 28.0265 42.55C27.8965 42.4033 27.8215 42.2867 27.8015 42.2V45.08ZM30.5165 40.95C30.5165 40.6533 30.4548 40.3967 30.3315 40.18C30.2115 39.9633 30.0515 39.795 29.8515 39.675C29.6515 39.555 29.4348 39.495 29.2015 39.495C28.9448 39.495 28.7115 39.5567 28.5015 39.68C28.2915 39.8 28.1248 39.97 28.0015 40.19C27.8782 40.4067 27.8165 40.66 27.8165 40.95C27.8165 41.24 27.8782 41.495 28.0015 41.715C28.1248 41.9317 28.2915 42.1 28.5015 42.22C28.7115 42.34 28.9448 42.4 29.2015 42.4C29.4348 42.4 29.6515 42.3417 29.8515 42.225C30.0515 42.105 30.2115 41.9367 30.3315 41.72C30.4548 41.5033 30.5165 41.2467 30.5165 40.95ZM33.1878 43H32.3128V36.12H33.1878V43ZM34.986 41.125C34.9893 41.3717 35.0427 41.5967 35.146 41.8C35.2493 42.0033 35.4027 42.165 35.606 42.285C35.8127 42.405 36.066 42.465 36.366 42.465C36.6193 42.465 36.8343 42.4283 37.011 42.355C37.191 42.2783 37.3377 42.1883 37.451 42.085C37.5643 41.9783 37.646 41.8833 37.696 41.8L38.121 42.325C38.011 42.485 37.876 42.625 37.716 42.745C37.5593 42.865 37.3677 42.9567 37.141 43.02C36.9143 43.0867 36.6377 43.12 36.311 43.12C35.871 43.12 35.4893 43.0267 35.166 42.84C34.846 42.65 34.5993 42.3883 34.426 42.055C34.2527 41.7183 34.166 41.3333 34.166 40.9C34.166 40.5 34.2477 40.14 34.411 39.82C34.5743 39.4967 34.811 39.2417 35.121 39.055C35.4343 38.8683 35.811 38.775 36.251 38.775C36.6543 38.775 37.0043 38.86 37.301 39.03C37.601 39.1967 37.8327 39.4333 37.996 39.74C38.1627 40.0467 38.246 40.4133 38.246 40.84C38.246 40.8667 38.2443 40.915 38.241 40.985C38.2377 41.0517 38.2343 41.0983 38.231 41.125H34.986ZM37.416 40.47C37.4127 40.3333 37.3727 40.1833 37.296 40.02C37.2227 39.8567 37.1027 39.7167 36.936 39.6C36.7693 39.4833 36.5443 39.425 36.261 39.425C35.9677 39.425 35.731 39.4817 35.551 39.595C35.3743 39.7083 35.2443 39.8467 35.161 40.01C35.0777 40.17 35.0293 40.3233 35.016 40.47H37.416Z" fill="#61D8DE"/>
<path d="M1.40664 54.035C1.61664 54.035 1.80497 54.085 1.97164 54.185C2.13831 54.2817 2.27164 54.415 2.37164 54.585C2.47164 54.7517 2.52164 54.94 2.52164 55.15C2.52164 55.3533 2.47164 55.5383 2.37164 55.705C2.27164 55.8717 2.13831 56.005 1.97164 56.105C1.80497 56.2017 1.61664 56.25 1.40664 56.25C1.20331 56.25 1.01831 56.2017 0.851641 56.105C0.684974 56.005 0.551641 55.8717 0.451641 55.705C0.354974 55.5383 0.306641 55.3533 0.306641 55.15C0.306641 54.9433 0.354974 54.7567 0.451641 54.59C0.551641 54.42 0.684974 54.285 0.851641 54.185C1.01831 54.085 1.20331 54.035 1.40664 54.035ZM10.11 54.695C10.11 55.185 10.2117 55.6267 10.415 56.02C10.6217 56.4133 10.905 56.7267 11.265 56.96C11.625 57.19 12.0383 57.305 12.505 57.305C12.975 57.305 13.3883 57.19 13.745 56.96C14.105 56.7267 14.3867 56.4133 14.59 56.02C14.7933 55.6267 14.895 55.185 14.895 54.695C14.895 54.205 14.7933 53.765 14.59 53.375C14.3867 52.9817 14.105 52.67 13.745 52.44C13.3883 52.21 12.975 52.095 12.505 52.095C12.0383 52.095 11.625 52.21 11.265 52.44C10.905 52.67 10.6217 52.9817 10.415 53.375C10.2117 53.765 10.11 54.205 10.11 54.695ZM9.225 54.695C9.225 54.215 9.30667 53.7683 9.47 53.355C9.63667 52.9383 9.86833 52.575 10.165 52.265C10.4617 51.955 10.8083 51.7133 11.205 51.54C11.605 51.3667 12.0383 51.28 12.505 51.28C12.975 51.28 13.4083 51.3667 13.805 51.54C14.205 51.7133 14.5517 51.955 14.845 52.265C15.1417 52.575 15.3717 52.9383 15.535 53.355C15.6983 53.7683 15.78 54.215 15.78 54.695C15.78 55.1783 15.6983 55.6283 15.535 56.045C15.375 56.4583 15.1467 56.8217 14.85 57.135C14.5567 57.445 14.2117 57.6867 13.815 57.86C13.4183 58.0333 12.9817 58.12 12.505 58.12C12.0283 58.12 11.5883 58.0333 11.185 57.86C10.785 57.6867 10.4383 57.445 10.145 57.135C9.85167 56.8217 9.625 56.4583 9.465 56.045C9.305 55.6283 9.225 55.1783 9.225 54.695ZM17.6066 58H16.7416V53.895H17.6066V54.605H17.5816C17.5982 54.5183 17.6599 54.41 17.7666 54.28C17.8732 54.15 18.0199 54.0333 18.2066 53.93C18.3932 53.8267 18.6166 53.775 18.8766 53.775C19.0666 53.775 19.2332 53.8017 19.3766 53.855C19.5232 53.905 19.6266 53.955 19.6866 54.005L19.3316 54.725C19.2849 54.6783 19.2032 54.6317 19.0866 54.585C18.9699 54.535 18.8249 54.51 18.6516 54.51C18.4316 54.51 18.2432 54.5783 18.0866 54.715C17.9299 54.8517 17.8099 55.0167 17.7266 55.21C17.6466 55.4 17.6066 55.5767 17.6066 55.74V58ZM23.4598 58V57.2C23.4331 57.2833 23.3548 57.3983 23.2248 57.545C23.0981 57.6917 22.9231 57.825 22.6998 57.945C22.4798 58.0617 22.2198 58.12 21.9198 58.12C21.5398 58.12 21.1948 58.03 20.8848 57.85C20.5781 57.67 20.3331 57.4183 20.1498 57.095C19.9698 56.7683 19.8798 56.3867 19.8798 55.95C19.8798 55.5133 19.9698 55.1333 20.1498 54.81C20.3331 54.4833 20.5781 54.23 20.8848 54.05C21.1948 53.8667 21.5398 53.775 21.9198 53.775C22.2164 53.775 22.4731 53.8283 22.6898 53.935C22.9098 54.0417 23.0848 54.165 23.2148 54.305C23.3481 54.445 23.4264 54.565 23.4498 54.665V53.895H24.3098V58H23.4598ZM20.7398 55.95C20.7398 56.2467 20.8048 56.5033 20.9348 56.72C21.0648 56.9367 21.2331 57.105 21.4398 57.225C21.6498 57.3417 21.8731 57.4 22.1098 57.4C22.3631 57.4 22.5898 57.34 22.7898 57.22C22.9898 57.1 23.1481 56.9317 23.2648 56.715C23.3814 56.495 23.4398 56.24 23.4398 55.95C23.4398 55.66 23.3814 55.4067 23.2648 55.19C23.1481 54.97 22.9898 54.8 22.7898 54.68C22.5898 54.5567 22.3631 54.495 22.1098 54.495C21.8731 54.495 21.6498 54.555 21.4398 54.675C21.2331 54.795 21.0648 54.9633 20.9348 55.18C20.8048 55.3967 20.7398 55.6533 20.7398 55.95ZM27.7673 53.775C28.0373 53.775 28.2989 53.8317 28.5523 53.945C28.8089 54.0583 29.0189 54.2383 29.1823 54.485C29.3489 54.7283 29.4323 55.0467 29.4323 55.44V58H28.5523V55.61C28.5523 55.2033 28.4573 54.9083 28.2673 54.725C28.0773 54.5383 27.8323 54.445 27.5323 54.445C27.3356 54.445 27.1456 54.5017 26.9623 54.615C26.7823 54.725 26.6339 54.8783 26.5173 55.075C26.4006 55.2683 26.3423 55.4883 26.3423 55.735V58H25.4723V53.895H26.3423V54.625C26.3723 54.5117 26.4539 54.3883 26.5873 54.255C26.7206 54.1217 26.8906 54.0083 27.0973 53.915C27.3039 53.8217 27.5273 53.775 27.7673 53.775ZM32.5299 60.195C32.2066 60.195 31.9133 60.1617 31.6499 60.095C31.3899 60.0283 31.1616 59.9333 30.9649 59.81C30.7716 59.69 30.6166 59.5483 30.4999 59.385L31.0699 58.84C31.1333 58.9267 31.2183 59.0183 31.3249 59.115C31.4349 59.215 31.5833 59.3 31.7699 59.37C31.9566 59.44 32.1999 59.475 32.4999 59.475C32.7933 59.475 33.0416 59.4117 33.2449 59.285C33.4483 59.1617 33.6033 58.9933 33.7099 58.78C33.8166 58.5667 33.8699 58.3267 33.8699 58.06V57.925H34.7199V58.115C34.7199 58.5683 34.6216 58.9483 34.4249 59.255C34.2316 59.565 33.9699 59.7983 33.6399 59.955C33.3099 60.115 32.9399 60.195 32.5299 60.195ZM33.8699 58V57.2C33.8433 57.2833 33.7649 57.3983 33.6349 57.545C33.5083 57.6917 33.3333 57.825 33.1099 57.945C32.8899 58.0617 32.6299 58.12 32.3299 58.12C31.9499 58.12 31.6049 58.03 31.2949 57.85C30.9883 57.67 30.7433 57.4183 30.5599 57.095C30.3799 56.7683 30.2899 56.3867 30.2899 55.95C30.2899 55.5133 30.3799 55.1333 30.5599 54.81C30.7433 54.4833 30.9883 54.23 31.2949 54.05C31.6049 53.8667 31.9499 53.775 32.3299 53.775C32.6266 53.775 32.8833 53.8283 33.0999 53.935C33.3199 54.0417 33.4949 54.165 33.6249 54.305C33.7583 54.445 33.8366 54.565 33.8599 54.665V53.895H34.7199V58H33.8699ZM31.1499 55.95C31.1499 56.2467 31.2149 56.5033 31.3449 56.72C31.4749 56.9367 31.6433 57.105 31.8499 57.225C32.0599 57.3417 32.2833 57.4 32.5199 57.4C32.7733 57.4 32.9999 57.34 33.1999 57.22C33.3999 57.1 33.5583 56.9317 33.6749 56.715C33.7916 56.495 33.8499 56.24 33.8499 55.95C33.8499 55.66 33.7916 55.4067 33.6749 55.19C33.5583 54.97 33.3999 54.8 33.1999 54.68C32.9999 54.5567 32.7733 54.495 32.5199 54.495C32.2833 54.495 32.0599 54.555 31.8499 54.675C31.6433 54.795 31.4749 54.9633 31.3449 55.18C31.2149 55.3967 31.1499 55.6533 31.1499 55.95ZM36.4665 56.125C36.4698 56.3717 36.5232 56.5967 36.6265 56.8C36.7298 57.0033 36.8832 57.165 37.0865 57.285C37.2932 57.405 37.5465 57.465 37.8465 57.465C38.0998 57.465 38.3148 57.4283 38.4915 57.355C38.6715 57.2783 38.8182 57.1883 38.9315 57.085C39.0448 56.9783 39.1265 56.8833 39.1765 56.8L39.6015 57.325C39.4915 57.485 39.3565 57.625 39.1965 57.745C39.0398 57.865 38.8482 57.9567 38.6215 58.02C38.3948 58.0867 38.1182 58.12 37.7915 58.12C37.3515 58.12 36.9698 58.0267 36.6465 57.84C36.3265 57.65 36.0798 57.3883 35.9065 57.055C35.7332 56.7183 35.6465 56.3333 35.6465 55.9C35.6465 55.5 35.7282 55.14 35.8915 54.82C36.0548 54.4967 36.2915 54.2417 36.6015 54.055C36.9148 53.8683 37.2915 53.775 37.7315 53.775C38.1348 53.775 38.4848 53.86 38.7815 54.03C39.0815 54.1967 39.3132 54.4333 39.4765 54.74C39.6432 55.0467 39.7265 55.4133 39.7265 55.84C39.7265 55.8667 39.7248 55.915 39.7215 55.985C39.7182 56.0517 39.7148 56.0983 39.7115 56.125H36.4665ZM38.8965 55.47C38.8932 55.3333 38.8532 55.1833 38.7765 55.02C38.7032 54.8567 38.5832 54.7167 38.4165 54.6C38.2498 54.4833 38.0248 54.425 37.7415 54.425C37.4482 54.425 37.2115 54.4817 37.0315 54.595C36.8548 54.7083 36.7248 54.8467 36.6415 55.01C36.5582 55.17 36.5098 55.3233 36.4965 55.47H38.8965Z" fill="#61D8DE"/>
<path d="M58.4066 35.035C58.6166 35.035 58.805 35.085 58.9716 35.185C59.1383 35.2817 59.2716 35.415 59.3716 35.585C59.4716 35.7517 59.5216 35.94 59.5216 36.15C59.5216 36.3533 59.4716 36.5383 59.3716 36.705C59.2716 36.8717 59.1383 37.005 58.9716 37.105C58.805 37.2017 58.6166 37.25 58.4066 37.25C58.2033 37.25 58.0183 37.2017 57.8516 37.105C57.685 37.005 57.5516 36.8717 57.4516 36.705C57.355 36.5383 57.3066 36.3533 57.3066 36.15C57.3066 35.9433 57.355 35.7567 57.4516 35.59C57.5516 35.42 57.685 35.285 57.8516 35.185C58.0183 35.085 58.2033 35.035 58.4066 35.035ZM66.6 32.4H68.47C68.8833 32.4 69.255 32.4683 69.585 32.605C69.9183 32.7383 70.1833 32.9483 70.38 33.235C70.5767 33.5217 70.675 33.895 70.675 34.355C70.675 34.8117 70.5767 35.19 70.38 35.49C70.1833 35.79 69.9183 36.015 69.585 36.165C69.255 36.3117 68.8833 36.385 68.47 36.385H67.455V39H66.6V32.4ZM67.455 35.67H68.235C68.5183 35.67 68.775 35.6283 69.005 35.545C69.2383 35.4617 69.4233 35.325 69.56 35.135C69.7 34.945 69.77 34.69 69.77 34.37C69.77 34.0467 69.7 33.795 69.56 33.615C69.4233 33.4317 69.2383 33.3033 69.005 33.23C68.775 33.1533 68.5183 33.115 68.235 33.115H67.455V35.67ZM71.8747 37.125C71.878 37.3717 71.9314 37.5967 72.0347 37.8C72.138 38.0033 72.2914 38.165 72.4947 38.285C72.7014 38.405 72.9547 38.465 73.2547 38.465C73.508 38.465 73.723 38.4283 73.8997 38.355C74.0797 38.2783 74.2264 38.1883 74.3397 38.085C74.453 37.9783 74.5347 37.8833 74.5847 37.8L75.0097 38.325C74.8997 38.485 74.7647 38.625 74.6047 38.745C74.448 38.865 74.2564 38.9567 74.0297 39.02C73.803 39.0867 73.5264 39.12 73.1997 39.12C72.7597 39.12 72.378 39.0267 72.0547 38.84C71.7347 38.65 71.488 38.3883 71.3147 38.055C71.1414 37.7183 71.0547 37.3333 71.0547 36.9C71.0547 36.5 71.1364 36.14 71.2997 35.82C71.463 35.4967 71.6997 35.2417 72.0097 35.055C72.323 34.8683 72.6997 34.775 73.1397 34.775C73.543 34.775 73.893 34.86 74.1897 35.03C74.4897 35.1967 74.7214 35.4333 74.8847 35.74C75.0514 36.0467 75.1347 36.4133 75.1347 36.84C75.1347 36.8667 75.133 36.915 75.1297 36.985C75.1264 37.0517 75.123 37.0983 75.1197 37.125H71.8747ZM74.3047 36.47C74.3014 36.3333 74.2614 36.1833 74.1847 36.02C74.1114 35.8567 73.9914 35.7167 73.8247 35.6C73.658 35.4833 73.433 35.425 73.1497 35.425C72.8564 35.425 72.6197 35.4817 72.4397 35.595C72.263 35.7083 72.133 35.8467 72.0497 36.01C71.9664 36.17 71.918 36.3233 71.9047 36.47H74.3047ZM79.3953 39V38.2C79.3686 38.2833 79.2903 38.3983 79.1603 38.545C79.0336 38.6917 78.8586 38.825 78.6353 38.945C78.4153 39.0617 78.1553 39.12 77.8553 39.12C77.4753 39.12 77.1303 39.03 76.8203 38.85C76.5136 38.67 76.2686 38.4183 76.0853 38.095C75.9053 37.7683 75.8153 37.3867 75.8153 36.95C75.8153 36.5133 75.9053 36.1333 76.0853 35.81C76.2686 35.4833 76.5136 35.23 76.8203 35.05C77.1303 34.8667 77.4753 34.775 77.8553 34.775C78.152 34.775 78.4086 34.8283 78.6253 34.935C78.8453 35.0417 79.0203 35.165 79.1503 35.305C79.2836 35.445 79.362 35.565 79.3853 35.665V34.895H80.2453V39H79.3953ZM76.6753 36.95C76.6753 37.2467 76.7403 37.5033 76.8703 37.72C77.0003 37.9367 77.1686 38.105 77.3753 38.225C77.5853 38.3417 77.8086 38.4 78.0453 38.4C78.2986 38.4 78.5253 38.34 78.7253 38.22C78.9253 38.1 79.0836 37.9317 79.2003 37.715C79.317 37.495 79.3753 37.24 79.3753 36.95C79.3753 36.66 79.317 36.4067 79.2003 36.19C79.0836 35.97 78.9253 35.8 78.7253 35.68C78.5253 35.5567 78.2986 35.495 78.0453 35.495C77.8086 35.495 77.5853 35.555 77.3753 35.675C77.1686 35.795 77.0003 35.9633 76.8703 36.18C76.7403 36.3967 76.6753 36.6533 76.6753 36.95ZM82.2628 39H81.3978V34.895H82.2628V35.605H82.2378C82.2545 35.5183 82.3161 35.41 82.4228 35.28C82.5295 35.15 82.6761 35.0333 82.8628 34.93C83.0495 34.8267 83.2728 34.775 83.5328 34.775C83.7228 34.775 83.8895 34.8017 84.0328 34.855C84.1795 34.905 84.2828 34.955 84.3428 35.005L83.9878 35.725C83.9411 35.6783 83.8595 35.6317 83.7428 35.585C83.6261 35.535 83.4811 35.51 83.3078 35.51C83.0878 35.51 82.8995 35.5783 82.7428 35.715C82.5861 35.8517 82.4661 36.0167 82.3828 36.21C82.3028 36.4 82.2628 36.5767 82.2628 36.74V39Z" fill="#61D8DE"/>
<path d="M62.4066 50.035C62.6166 50.035 62.805 50.085 62.9716 50.185C63.1383 50.2817 63.2716 50.415 63.3716 50.585C63.4716 50.7517 63.5216 50.94 63.5216 51.15C63.5216 51.3533 63.4716 51.5383 63.3716 51.705C63.2716 51.8717 63.1383 52.005 62.9716 52.105C62.805 52.2017 62.6166 52.25 62.4066 52.25C62.2033 52.25 62.0183 52.2017 61.8516 52.105C61.685 52.005 61.5516 51.8717 61.4516 51.705C61.355 51.5383 61.3066 51.3533 61.3066 51.15C61.3066 50.9433 61.355 50.7567 61.4516 50.59C61.5516 50.42 61.685 50.285 61.8516 50.185C62.0183 50.085 62.2033 50.035 62.4066 50.035ZM71.915 48.175H70.135V47.4H74.555V48.175H72.775V54H71.915V48.175ZM76.5656 54.12C76.1423 54.12 75.7656 54.025 75.4356 53.835C75.109 53.645 74.8523 53.3883 74.6656 53.065C74.479 52.7383 74.3856 52.37 74.3856 51.96C74.3856 51.55 74.479 51.18 74.6656 50.85C74.8523 50.52 75.109 50.2583 75.4356 50.065C75.7656 49.8717 76.1423 49.775 76.5656 49.775C76.9856 49.775 77.3573 49.8717 77.6806 50.065C78.0073 50.2583 78.2623 50.52 78.4456 50.85C78.629 51.18 78.7206 51.55 78.7206 51.96C78.7206 52.37 78.629 52.7383 78.4456 53.065C78.2623 53.3883 78.0073 53.645 77.6806 53.835C77.3573 54.025 76.9856 54.12 76.5656 54.12ZM76.5656 53.375C76.8323 53.375 77.064 53.3133 77.2606 53.19C77.4606 53.0667 77.6156 52.8983 77.7256 52.685C77.8356 52.4683 77.8906 52.225 77.8906 51.955C77.8906 51.685 77.8356 51.4417 77.7256 51.225C77.6156 51.0083 77.4606 50.8367 77.2606 50.71C77.064 50.5833 76.8323 50.52 76.5656 50.52C76.2956 50.52 76.0606 50.5833 75.8606 50.71C75.6606 50.8367 75.504 51.0083 75.3906 51.225C75.2806 51.4417 75.2256 51.685 75.2256 51.955C75.2256 52.225 75.2806 52.4683 75.3906 52.685C75.504 52.8983 75.6606 53.0667 75.8606 53.19C76.0606 53.3133 76.2956 53.375 76.5656 53.375ZM84.6102 49.775C84.9135 49.775 85.1735 49.8417 85.3902 49.975C85.6068 50.105 85.7718 50.305 85.8852 50.575C86.0018 50.845 86.0602 51.19 86.0602 51.61V54H85.2002V51.785C85.2002 51.3417 85.1385 51.0083 85.0152 50.785C84.8918 50.5617 84.6668 50.45 84.3402 50.45C84.1668 50.45 84.0002 50.4983 83.8402 50.595C83.6835 50.6883 83.5535 50.8333 83.4502 51.03C83.3502 51.2267 83.3002 51.4783 83.3002 51.785V54H82.4902V51.785C82.4902 51.3417 82.4135 51.0083 82.2602 50.785C82.1068 50.5617 81.8918 50.45 81.6152 50.45C81.4385 50.45 81.2718 50.4967 81.1152 50.59C80.9618 50.68 80.8368 50.8233 80.7402 51.02C80.6435 51.2167 80.5952 51.4717 80.5952 51.785V54H79.7302V49.895H80.5952V50.525C80.6318 50.4217 80.7102 50.3117 80.8302 50.195C80.9535 50.0783 81.1102 49.98 81.3002 49.9C81.4935 49.8167 81.7085 49.775 81.9452 49.775C82.1918 49.775 82.3985 49.825 82.5652 49.925C82.7318 50.025 82.8635 50.1483 82.9602 50.295C83.0568 50.4383 83.1235 50.5767 83.1602 50.71C83.2068 50.5667 83.2968 50.4233 83.4302 50.28C83.5635 50.1333 83.7318 50.0133 83.9352 49.92C84.1385 49.8233 84.3635 49.775 84.6102 49.775ZM90.5633 54V53.2C90.5366 53.2833 90.4583 53.3983 90.3283 53.545C90.2016 53.6917 90.0266 53.825 89.8033 53.945C89.5833 54.0617 89.3233 54.12 89.0233 54.12C88.6433 54.12 88.2983 54.03 87.9883 53.85C87.6816 53.67 87.4366 53.4183 87.2533 53.095C87.0733 52.7683 86.9833 52.3867 86.9833 51.95C86.9833 51.5133 87.0733 51.1333 87.2533 50.81C87.4366 50.4833 87.6816 50.23 87.9883 50.05C88.2983 49.8667 88.6433 49.775 89.0233 49.775C89.3199 49.775 89.5766 49.8283 89.7933 49.935C90.0133 50.0417 90.1883 50.165 90.3183 50.305C90.4516 50.445 90.5299 50.565 90.5533 50.665V49.895H91.4133V54H90.5633ZM87.8433 51.95C87.8433 52.2467 87.9083 52.5033 88.0383 52.72C88.1683 52.9367 88.3366 53.105 88.5433 53.225C88.7533 53.3417 88.9766 53.4 89.2133 53.4C89.4666 53.4 89.6933 53.34 89.8933 53.22C90.0933 53.1 90.2516 52.9317 90.3683 52.715C90.4849 52.495 90.5433 52.24 90.5433 51.95C90.5433 51.66 90.4849 51.4067 90.3683 51.19C90.2516 50.97 90.0933 50.8 89.8933 50.68C89.6933 50.5567 89.4666 50.495 89.2133 50.495C88.9766 50.495 88.7533 50.555 88.5433 50.675C88.3366 50.795 88.1683 50.9633 88.0383 51.18C87.9083 51.3967 87.8433 51.6533 87.8433 51.95ZM92.2258 49.895H93.0308V48.21H93.8958V49.895H94.9508V50.64H93.8958V52.67C93.8958 52.91 93.9374 53.0867 94.0208 53.2C94.1074 53.3133 94.2224 53.37 94.3658 53.37C94.4924 53.37 94.5908 53.3467 94.6608 53.3C94.7308 53.2533 94.7724 53.2217 94.7858 53.205L95.1308 53.845C95.1108 53.8617 95.0574 53.8933 94.9708 53.94C94.8841 53.9867 94.7724 54.0283 94.6358 54.065C94.4991 54.1017 94.3391 54.12 94.1558 54.12C93.8358 54.12 93.5674 54.0233 93.3508 53.83C93.1374 53.6333 93.0308 53.3233 93.0308 52.9V50.64H92.2258V49.895ZM97.7863 54.12C97.363 54.12 96.9863 54.025 96.6563 53.835C96.3297 53.645 96.073 53.3883 95.8863 53.065C95.6997 52.7383 95.6063 52.37 95.6063 51.96C95.6063 51.55 95.6997 51.18 95.8863 50.85C96.073 50.52 96.3297 50.2583 96.6563 50.065C96.9863 49.8717 97.363 49.775 97.7863 49.775C98.2063 49.775 98.578 49.8717 98.9013 50.065C99.228 50.2583 99.483 50.52 99.6663 50.85C99.8497 51.18 99.9413 51.55 99.9413 51.96C99.9413 52.37 99.8497 52.7383 99.6663 53.065C99.483 53.3883 99.228 53.645 98.9013 53.835C98.578 54.025 98.2063 54.12 97.7863 54.12ZM97.7863 53.375C98.053 53.375 98.2847 53.3133 98.4813 53.19C98.6813 53.0667 98.8363 52.8983 98.9463 52.685C99.0563 52.4683 99.1113 52.225 99.1113 51.955C99.1113 51.685 99.0563 51.4417 98.9463 51.225C98.8363 51.0083 98.6813 50.8367 98.4813 50.71C98.2847 50.5833 98.053 50.52 97.7863 50.52C97.5163 50.52 97.2813 50.5833 97.0813 50.71C96.8813 50.8367 96.7247 51.0083 96.6113 51.225C96.5013 51.4417 96.4463 51.685 96.4463 51.955C96.4463 52.225 96.5013 52.4683 96.6113 52.685C96.7247 52.8983 96.8813 53.0667 97.0813 53.19C97.2813 53.3133 97.5163 53.375 97.7863 53.375Z" fill="#61D8DE"/>
<path d="M43.4066 66.035C43.6166 66.035 43.805 66.085 43.9716 66.185C44.1383 66.2817 44.2716 66.415 44.3716 66.585C44.4716 66.7517 44.5216 66.94 44.5216 67.15C44.5216 67.3533 44.4716 67.5383 44.3716 67.705C44.2716 67.8717 44.1383 68.005 43.9716 68.105C43.805 68.2017 43.6166 68.25 43.4066 68.25C43.2033 68.25 43.0183 68.2017 42.8516 68.105C42.685 68.005 42.5516 67.8717 42.4516 67.705C42.355 67.5383 42.3066 67.3533 42.3066 67.15C42.3066 66.9433 42.355 66.7567 42.4516 66.59C42.5516 66.42 42.685 66.285 42.8516 66.185C43.0183 66.085 43.2033 66.035 43.4066 66.035ZM51.6 63.4H53.47C53.8833 63.4 54.255 63.4683 54.585 63.605C54.9183 63.7383 55.1833 63.9483 55.38 64.235C55.5767 64.5217 55.675 64.895 55.675 65.355C55.675 65.8117 55.5767 66.19 55.38 66.49C55.1833 66.79 54.9183 67.015 54.585 67.165C54.255 67.3117 53.8833 67.385 53.47 67.385H52.455V70H51.6V63.4ZM52.455 66.67H53.235C53.5183 66.67 53.775 66.6283 54.005 66.545C54.2383 66.4617 54.4233 66.325 54.56 66.135C54.7 65.945 54.77 65.69 54.77 65.37C54.77 65.0467 54.7 64.795 54.56 64.615C54.4233 64.4317 54.2383 64.3033 54.005 64.23C53.775 64.1533 53.5183 64.115 53.235 64.115H52.455V66.67ZM56.8747 68.125C56.878 68.3717 56.9314 68.5967 57.0347 68.8C57.138 69.0033 57.2914 69.165 57.4947 69.285C57.7014 69.405 57.9547 69.465 58.2547 69.465C58.508 69.465 58.723 69.4283 58.8997 69.355C59.0797 69.2783 59.2264 69.1883 59.3397 69.085C59.453 68.9783 59.5347 68.8833 59.5847 68.8L60.0097 69.325C59.8997 69.485 59.7647 69.625 59.6047 69.745C59.448 69.865 59.2564 69.9567 59.0297 70.02C58.803 70.0867 58.5264 70.12 58.1997 70.12C57.7597 70.12 57.378 70.0267 57.0547 69.84C56.7347 69.65 56.488 69.3883 56.3147 69.055C56.1414 68.7183 56.0547 68.3333 56.0547 67.9C56.0547 67.5 56.1364 67.14 56.2997 66.82C56.463 66.4967 56.6997 66.2417 57.0097 66.055C57.323 65.8683 57.6997 65.775 58.1397 65.775C58.543 65.775 58.893 65.86 59.1897 66.03C59.4897 66.1967 59.7214 66.4333 59.8847 66.74C60.0514 67.0467 60.1347 67.4133 60.1347 67.84C60.1347 67.8667 60.133 67.915 60.1297 67.985C60.1264 68.0517 60.123 68.0983 60.1197 68.125H56.8747ZM59.3047 67.47C59.3014 67.3333 59.2614 67.1833 59.1847 67.02C59.1114 66.8567 58.9914 66.7167 58.8247 66.6C58.658 66.4833 58.433 66.425 58.1497 66.425C57.8564 66.425 57.6197 66.4817 57.4397 66.595C57.263 66.7083 57.133 66.8467 57.0497 67.01C56.9664 67.17 56.918 67.3233 56.9047 67.47H59.3047ZM64.3953 70V69.2C64.3686 69.2833 64.2903 69.3983 64.1603 69.545C64.0336 69.6917 63.8586 69.825 63.6353 69.945C63.4153 70.0617 63.1553 70.12 62.8553 70.12C62.4753 70.12 62.1303 70.03 61.8203 69.85C61.5136 69.67 61.2686 69.4183 61.0853 69.095C60.9053 68.7683 60.8153 68.3867 60.8153 67.95C60.8153 67.5133 60.9053 67.1333 61.0853 66.81C61.2686 66.4833 61.5136 66.23 61.8203 66.05C62.1303 65.8667 62.4753 65.775 62.8553 65.775C63.152 65.775 63.4086 65.8283 63.6253 65.935C63.8453 66.0417 64.0203 66.165 64.1503 66.305C64.2836 66.445 64.362 66.565 64.3853 66.665V65.895H65.2453V70H64.3953ZM61.6753 67.95C61.6753 68.2467 61.7403 68.5033 61.8703 68.72C62.0003 68.9367 62.1686 69.105 62.3753 69.225C62.5853 69.3417 62.8086 69.4 63.0453 69.4C63.2986 69.4 63.5253 69.34 63.7253 69.22C63.9253 69.1 64.0836 68.9317 64.2003 68.715C64.317 68.495 64.3753 68.24 64.3753 67.95C64.3753 67.66 64.317 67.4067 64.2003 67.19C64.0836 66.97 63.9253 66.8 63.7253 66.68C63.5253 66.5567 63.2986 66.495 63.0453 66.495C62.8086 66.495 62.5853 66.555 62.3753 66.675C62.1686 66.795 62.0003 66.9633 61.8703 67.18C61.7403 67.3967 61.6753 67.6533 61.6753 67.95ZM68.3428 69.4C68.6028 69.4 68.8128 69.3583 68.9728 69.275C69.1328 69.1917 69.2328 69.1317 69.2728 69.095L69.6978 69.72C69.6645 69.75 69.5845 69.7983 69.4578 69.865C69.3345 69.9283 69.1745 69.9867 68.9778 70.04C68.7845 70.0933 68.5645 70.12 68.3178 70.12C67.9411 70.12 67.5911 70.0367 67.2678 69.87C66.9445 69.7 66.6828 69.4533 66.4828 69.13C66.2861 68.8067 66.1878 68.4117 66.1878 67.945C66.1878 67.475 66.2861 67.08 66.4828 66.76C66.6828 66.4367 66.9445 66.1917 67.2678 66.025C67.5911 65.8583 67.9411 65.775 68.3178 65.775C68.5611 65.775 68.7778 65.805 68.9678 65.865C69.1578 65.9217 69.3145 65.985 69.4378 66.055C69.5611 66.125 69.6428 66.1783 69.6828 66.215L69.2528 66.84C69.2261 66.8133 69.1745 66.7733 69.0978 66.72C69.0245 66.6633 68.9245 66.6117 68.7978 66.565C68.6711 66.5183 68.5195 66.495 68.3428 66.495C68.1295 66.495 67.9211 66.5533 67.7178 66.67C67.5178 66.7833 67.3528 66.9483 67.2228 67.165C67.0928 67.3817 67.0278 67.6417 67.0278 67.945C67.0278 68.2483 67.0928 68.51 67.2228 68.73C67.3528 68.9467 67.5178 69.1133 67.7178 69.23C67.9211 69.3433 68.1295 69.4 68.3428 69.4ZM72.8832 65.775C73.1532 65.775 73.4149 65.8317 73.6682 65.945C73.9249 66.0583 74.1349 66.2383 74.2982 66.485C74.4649 66.7283 74.5482 67.0467 74.5482 67.44V70H73.6682V67.61C73.6682 67.2033 73.5749 66.9083 73.3882 66.725C73.2049 66.5383 72.9632 66.445 72.6632 66.445C72.4632 66.445 72.2715 66.5017 72.0882 66.615C71.9049 66.725 71.7532 66.8783 71.6332 67.075C71.5165 67.2683 71.4582 67.4883 71.4582 67.735V70H70.5782V63.12H71.4582V66.625C71.4882 66.5117 71.5682 66.3883 71.6982 66.255C71.8315 66.1217 72.0015 66.0083 72.2082 65.915C72.4149 65.8217 72.6399 65.775 72.8832 65.775Z" fill="#61D8DE"/>
</g>
<defs>
<clipPath id="clip0_373_327">
<rect width="100" height="72" fill="white"/>
</clipPath>
</defs>
</svg>
