<svg width="20" height="20" viewBox="0 0 20 20" fill="none" xmlns="http://www.w3.org/2000/svg">
<path d="M10.0832 14.854C10.3054 14.854 10.4929 14.7776 10.6457 14.6248C10.7984 14.4721 10.8748 14.2846 10.8748 14.0623C10.8748 13.8401 10.7984 13.6526 10.6457 13.4998C10.4929 13.3471 10.3054 13.2707 10.0832 13.2707C9.86095 13.2707 9.67345 13.3471 9.52067 13.4998C9.36789 13.6526 9.2915 13.8401 9.2915 14.0623C9.2915 14.2846 9.36789 14.4721 9.52067 14.6248C9.67345 14.7776 9.86095 14.854 10.0832 14.854ZM9.354 11.8123H10.5832C10.5832 11.4512 10.6283 11.1214 10.7186 10.8228C10.8089 10.5241 11.0901 10.1804 11.5623 9.7915C11.9929 9.43039 12.2984 9.07623 12.479 8.729C12.6596 8.38178 12.7498 7.99984 12.7498 7.58317C12.7498 6.84706 12.5103 6.25678 12.0311 5.81234C11.5519 5.36789 10.9165 5.14567 10.1248 5.14567C9.44428 5.14567 8.84359 5.31581 8.32275 5.65609C7.80192 5.99636 7.42345 6.46511 7.18734 7.06234L8.2915 7.479C8.44428 7.09011 8.67345 6.78803 8.979 6.57275C9.28456 6.35748 9.64567 6.24984 10.0623 6.24984C10.5346 6.24984 10.9165 6.37831 11.2082 6.63525C11.4998 6.8922 11.6457 7.22206 11.6457 7.62484C11.6457 7.93039 11.5554 8.21859 11.3748 8.48942C11.1943 8.76025 10.9304 9.0415 10.5832 9.33317C10.1665 9.69428 9.85748 10.0519 9.65609 10.4061C9.4547 10.7603 9.354 11.229 9.354 11.8123ZM9.99984 18.3332C8.86095 18.3332 7.78456 18.1144 6.77067 17.6769C5.75678 17.2394 4.87136 16.6422 4.11442 15.8853C3.35748 15.1283 2.76025 14.2429 2.32275 13.229C1.88525 12.2151 1.6665 11.1387 1.6665 9.99984C1.6665 8.84706 1.88525 7.76373 2.32275 6.74984C2.76025 5.73595 3.35748 4.854 4.11442 4.104C4.87136 3.354 5.75678 2.76025 6.77067 2.32275C7.78456 1.88525 8.86095 1.6665 9.99984 1.6665C11.1526 1.6665 12.2359 1.88525 13.2498 2.32275C14.2637 2.76025 15.1457 3.354 15.8957 4.104C16.6457 4.854 17.2394 5.73595 17.6769 6.74984C18.1144 7.76373 18.3332 8.84706 18.3332 9.99984C18.3332 11.1387 18.1144 12.2151 17.6769 13.229C17.2394 14.2429 16.6457 15.1283 15.8957 15.8853C15.1457 16.6422 14.2637 17.2394 13.2498 17.6769C12.2359 18.1144 11.1526 18.3332 9.99984 18.3332Z" fill="#5E17EB"/>
</svg>
