<svg width="440" height="716" viewBox="0 0 440 716" fill="none" xmlns="http://www.w3.org/2000/svg">
<g class="demonstration-svg">
<rect width="440" height="716" rx="12" fill="#F0F0F0"/>
<g class="demonstration-frame" clip-path="url(#clip0_405_555)">
<g class="demonstration-paragraph">
<line class="svg-demonstration-line" x1="25" y1="37" x2="415" y2="37" stroke="#9A9A9A" stroke-width="4"/>
<line class="svg-demonstration-line" x1="25" y1="67" x2="270" y2="67" stroke="#9A9A9A" stroke-width="4"/>
<line class="svg-demonstration-line" x1="25" y1="97" x2="75" y2="97" stroke="#9A9A9A" stroke-width="4"/>
<line class="svg-demonstration-line" x1="177" y1="97" x2="415" y2="97" stroke="#9A9A9A" stroke-width="4"/>
<line class="svg-demonstration-line" x1="25" y1="127" x2="415" y2="127" stroke="#9A9A9A" stroke-width="4"/>
<line class="svg-demonstration-line" x1="25" y1="157" x2="415" y2="157" stroke="#9A9A9A" stroke-width="4"/>
<line class="svg-demonstration-line" x1="25" y1="187" x2="145" y2="187" stroke="#9A9A9A" stroke-width="4"/>
<line class="svg-demonstration-line" x1="247" y1="187" x2="415" y2="187" stroke="#9A9A9A" stroke-width="4"/>
<g class="svg-blank">
<rect x="275" y="55" width="92" height="24" rx="8" fill="white"/>
</g>
<g class="svg-blank">
<rect x="80" y="85" width="92" height="24" rx="8" fill="white"/>
</g>
<g class="svg-blank">
<rect x="150" y="175" width="92" height="24" rx="8" fill="white"/>
</g>
<path class="line_9" d="M374 67L415 67" stroke="#9A9A9A" stroke-width="4"/>
</g>
<g class="demonstration-paragraph_2">
<line class="svg-demonstration-line" x1="415" y1="367" x2="25" y2="367" stroke="#9A9A9A" stroke-width="4"/>
<line class="svg-demonstration-line" x1="415" y1="337" x2="170" y2="337" stroke="#9A9A9A" stroke-width="4"/>
<line class="svg-demonstration-line" x1="415" y1="307" x2="365" y2="307" stroke="#9A9A9A" stroke-width="4"/>
<line class="svg-demonstration-line" x1="263" y1="307" x2="25" y2="307" stroke="#9A9A9A" stroke-width="4"/>
<line class="svg-demonstration-line" x1="415" y1="277" x2="25" y2="277" stroke="#9A9A9A" stroke-width="4"/>
<line class="svg-demonstration-line" x1="415" y1="247" x2="25" y2="247" stroke="#9A9A9A" stroke-width="4"/>
<line class="svg-demonstration-line" x1="415" y1="217" x2="25" y2="217" stroke="#9A9A9A" stroke-width="4"/>
<g class="svg-blank">
<rect x="165" y="349" width="92" height="24" rx="8" transform="rotate(-180 165 349)" fill="white"/>
</g>
<g class="svg-blank">
<rect x="360" y="319" width="92" height="24" rx="8" transform="rotate(-180 360 319)" fill="white"/>
</g>
<path class="line_17" d="M66 337H25" stroke="#9A9A9A" stroke-width="4"/>
</g>
</g>
<g class="demonstration-words">
<rect x="25" y="406" width="390" height="164" rx="4" fill="white"/>
<g class="word-option">
<circle class="list-dot" cx="51" cy="437" r="5" fill="#5E17EB"/>
<line class="line_18" x1="64.9909" y1="437" x2="144.991" y2="437" stroke="black" stroke-width="4"/>
</g>
<g class="word-option">
<circle class="list-dot_2" cx="51" cy="469" r="5" fill="#5E17EB"/>
<line class="line_19" x1="64.9909" y1="469" x2="154.991" y2="469" stroke="black" stroke-width="4"/>
</g>
<g class="word-option">
<circle class="list-dot_3" cx="51" cy="501" r="5" fill="#5E17EB"/>
<line class="line_20" x1="64.9909" y1="501" x2="164.991" y2="501" stroke="black" stroke-width="4"/>
</g>
<g class="word-option">
<circle class="list-dot_4" cx="51" cy="533" r="5" fill="#5E17EB"/>
<line class="line_21" x1="64.9909" y1="533" x2="114.991" y2="533" stroke="black" stroke-width="4"/>
</g>
<g class="word-option">
<circle class="list-dot_5" cx="246" cy="437" r="5" fill="#5E17EB"/>
<line class="line_22" x1="259.991" y1="437" x2="319.991" y2="437" stroke="black" stroke-width="4"/>
</g>
<g class="word-option">
<circle class="list-dot_6" cx="246" cy="469" r="5" fill="#5E17EB"/>
<line class="line_23" x1="259.991" y1="469" x2="299.991" y2="469" stroke="black" stroke-width="4"/>
</g>
<g class="word-option">
<circle class="list-dot_7" cx="246" cy="501" r="5" fill="#5E17EB"/>
<line class="line_24" x1="259.991" y1="501" x2="359.991" y2="501" stroke="black" stroke-width="4"/>
</g>
<g class="word-option">
<circle class="list-dot_8" cx="246" cy="533" r="5" fill="#5E17EB"/>
<line class="line_25" x1="259.991" y1="533" x2="349.991" y2="533" stroke="black" stroke-width="4"/>
</g>
</g>
<g class="demonstration-button">
<rect x="148" y="628" width="144" height="54" rx="8" fill="#5E17EB"/>
<line class="line_26" x1="190" y1="655" x2="250" y2="655" stroke="#F0F0F0" stroke-width="4"/>
</g>
</g>
<defs>
<clipPath class="clip0_405_555">
<rect width="390" height="384" fill="white" transform="translate(25 22)"/>
</clipPath>
</defs>
</svg>
